<svg width="5369" height="5192" viewBox="0 0 5369 5192" fill="none" xmlns="http://www.w3.org/2000/svg">
<path d="M2487.09 197.484C1326.27 292.946 403.816 1144.51 236.4 2274.87C210.9 2445.19 210.9 2770.63 235.292 2936.6C342.837 3643.89 725.343 4235.1 1328.48 4626.72C1549.12 4769.91 1857.34 4900.09 2115.67 4958.67C2325.22 5005.31 2446.07 5018.33 2686.66 5018.33C2988.23 5017.24 3172.27 4989.04 3446.13 4904.43C4542.64 4560.54 5251.11 3502.87 5142.46 2374.67C5034.91 1269.26 4162.36 375.391 3035.9 214.84C2887.33 194.229 2630.11 185.551 2487.09 197.484ZM2811.94 620.555C3253.21 654.184 3631.28 798.462 3963.9 1060.98C4359.71 1375.58 4619.15 1822.51 4700.08 2334.54C4718.93 2452.78 4718.93 2758.69 4700.08 2876.94C4675.69 3029.89 4625.8 3211.05 4571.47 3343.4C4127.99 4424.94 2835.22 4906.59 1775.29 4385.89C1248.66 4127.71 866.15 3665.59 713.147 3102.57C631.102 2802.09 631.102 2409.39 713.147 2109.98C940.434 1273.6 1662.21 685.643 2542.52 620.555C2603.5 616.216 2655.61 611.877 2658.94 611.877C2662.27 610.792 2731.01 615.131 2811.94 620.555Z" fill="black"/>
<path d="M2958.29 978.538C2889.55 990.471 2789.77 1028.44 2745.42 1059.9C2672.24 1113.05 2663.37 1114.14 2623.46 1084.85C2494.85 989.386 2270.89 952.503 2083.52 994.81C1873.97 1043.63 1709.88 1198.75 1662.2 1395.1C1644.46 1464.53 1644.46 1612.06 1661.1 1673.89C1676.62 1728.13 1726.51 1831.19 1763.1 1882.18C1811.88 1951.6 1957.12 2090.46 2060.23 2165.31C2182.19 2255.35 2392.85 2377.93 2423.89 2377.93C2434.98 2377.93 2453.83 2369.25 2463.8 2357.32C2473.78 2346.47 2512.59 2323.69 2549.18 2308.5C2606.83 2282.47 2614.59 2275.96 2614.59 2247.75C2614.59 2214.12 2558.04 2050.32 2524.78 1984.15C2499.28 1937.5 2501.5 1932.08 2566.91 1874.58C2593.52 1851.8 2625.68 1813.83 2637.87 1791.05C2650.07 1767.19 2664.48 1748.74 2670.03 1748.74C2675.57 1748.74 2692.2 1767.19 2707.72 1788.88C2722.13 1811.66 2759.83 1853.97 2791.98 1882.18C2823.03 1910.38 2846.31 1939.67 2844.09 1947.26C2810.83 2018.86 2766.48 2141.44 2752.07 2194.6C2733.22 2267.28 2738.77 2284.64 2789.77 2296.57C2806.4 2299.82 2846.31 2320.43 2878.46 2342.13L2937.22 2381.18L2983.79 2356.23C3009.29 2342.13 3078.03 2300.91 3135.68 2264.02C3419.52 2083.95 3596.91 1896.28 3668.98 1699.93C3702.24 1609.89 3702.24 1447.17 3668.98 1346.28C3581.39 1075.08 3285.36 923.213 2958.29 978.538Z" fill="#00A54E"/>
<path d="M3756.57 2194.61C3589.15 2213.05 3357.43 2296.58 3147.88 2413.74C3003.75 2495.1 3002.64 2496.18 3014.84 2555.84C3020.38 2582.96 3020.38 2627.44 3014.84 2654.56C3008.18 2692.53 3009.29 2707.72 3020.38 2719.65C3039.23 2737.01 3170.06 2767.38 3267.62 2776.06C3366.3 2784.74 3375.17 2790.16 3384.04 2853.08C3387.36 2882.37 3403.99 2930.1 3418.41 2959.39C3433.93 2988.68 3443.91 3019.05 3440.58 3025.56C3437.26 3034.24 3413.97 3039.66 3377.39 3039.66C3343.02 3039.66 3298.67 3049.43 3269.84 3061.36C3209.97 3088.48 3194.45 3084.14 3153.43 3026.65C3111.29 2969.15 2993.77 2846.57 2966.05 2832.47C2949.42 2822.7 2937.23 2827.04 2901.75 2855.25C2877.36 2873.69 2835.22 2898.64 2808.62 2910.57L2758.72 2932.27V3057.02C2758.72 3357.51 2823.03 3642.81 2926.14 3804.45C3037.01 3979.1 3221.06 4081.07 3423.95 4081.07C3647.91 4081.07 3840.83 3953.07 3950.59 3729.6C4008.24 3612.44 4025.98 3532.16 4021.55 3420.43L4017.11 3337.98L4082.53 3306.53C4284.31 3207.81 4432.88 2965.9 4432.88 2737.01C4432.88 2574.29 4381.88 2454.96 4265.47 2345.39C4134.64 2223.9 3960.57 2172.91 3756.57 2194.61Z" fill="#00A54E"/>
<path d="M1349.55 2234.74C1138.89 2290.06 971.475 2473.39 938.213 2683.84C914.93 2834.63 968.149 3012.54 1080.13 3158.98C1140 3236 1195.43 3281.57 1294.11 3332.55L1367.29 3370.52L1363.96 3451.88C1353.98 3659.08 1490.35 3906.41 1677.73 4018.14C1897.25 4150.49 2181.08 4115.78 2366.24 3935.7C2476 3828.3 2545.85 3679.69 2586.87 3470.32C2609.04 3357.5 2627.89 3051.59 2616.81 2981.08C2609.04 2931.18 2606.83 2926.84 2564.7 2912.73C2540.3 2905.14 2501.5 2883.45 2479.33 2866.09C2457.15 2847.65 2430.54 2833.54 2420.56 2833.54C2397.28 2833.54 2310.8 2920.33 2236.52 3019.04C2173.32 3101.49 2175.54 3101.49 2087.95 3067.86C2063.56 3059.18 2020.32 3051.59 1991.49 3050.5C1962.66 3050.5 1937.16 3046.16 1933.84 3040.74C1929.4 3035.32 1939.38 3006.03 1954.9 2975.65C1970.43 2945.28 1987.06 2896.46 1990.38 2867.17C1993.71 2835.71 2003.69 2810.76 2012.56 2807.51C2020.32 2804.25 2074.64 2794.49 2132.3 2784.73C2189.95 2776.05 2263.13 2759.78 2295.28 2750.02L2354.04 2730.49V2617.67C2354.04 2489.66 2364.02 2502.68 2215.45 2424.58C2095.71 2360.57 1928.29 2293.31 1799.68 2256.43C1653.33 2214.12 1460.42 2204.36 1349.55 2234.74Z" fill="#00A54E"/>
<path d="M2597.96 2436.51C2522.57 2467.97 2483.76 2548.24 2495.96 2640.45C2515.91 2784.73 2709.94 2845.48 2816.38 2740.25C2911.73 2648.05 2887.33 2498.34 2767.59 2436.51C2729.9 2418.07 2642.31 2416.98 2597.96 2436.51Z" fill="#00A54E"/>
<rect x="2376.55" width="616.999" height="241.476" fill="black"/>
<rect width="613.699" height="242.818" transform="matrix(0.870682 -0.491846 0.508199 0.86124 1065.43 498.045)" fill="black"/>
<rect width="607.045" height="245.48" transform="matrix(0.508199 -0.86124 0.870682 0.491846 201.632 1564.18)" fill="black"/>
<rect y="2902.55" width="603.69" height="246.8" transform="rotate(-90 0 2902.55)" fill="black"/>
<rect width="607.045" height="245.48" transform="matrix(-0.508199 -0.86124 0.870682 -0.491846 494.707 4175.14)" fill="black"/>
<rect width="613.699" height="242.818" transform="matrix(-0.870682 -0.491846 0.508199 -0.86124 1615.19 4993.37)" fill="black"/>
<rect x="2993.55" y="5191.74" width="616.999" height="241.476" transform="rotate(180 2993.55 5191.74)" fill="black"/>
<rect width="613.699" height="242.818" transform="matrix(-0.870682 0.491846 -0.508199 -0.86124 4314.56 4721.71)" fill="black"/>
<rect width="607.045" height="245.48" transform="matrix(-0.508199 0.86124 -0.870682 -0.491846 5181.68 3637.23)" fill="black"/>
<rect x="5369" y="2309.11" width="603.69" height="246.8" transform="rotate(90 5369 2309.11)" fill="black"/>
<rect width="607.045" height="245.48" transform="matrix(0.508199 0.86124 -0.870682 0.491846 4842.33 1056.45)" fill="black"/>
<rect width="613.699" height="242.818" transform="matrix(0.870682 0.491846 -0.508199 0.86124 3764.8 196.195)" fill="black"/>
</svg>
