<svg width="169" height="124" viewBox="0 0 169 124" fill="none" xmlns="http://www.w3.org/2000/svg">
<path fill-rule="evenodd" clip-rule="evenodd" d="M40.5011 75.4395L57.7948 85.4267C64.9785 86.8256 72.5454 81.7376 77.8223 77.284C89.9656 64.8161 104.588 54.5118 121.817 51.2665L65.1692 18.5071C70.5102 16.217 76.4233 15.0087 82.5894 15.0087C104.271 15.0087 122.389 30.4029 126.586 50.8209C131.546 50.1224 136.313 49.994 141.337 50.6302C136.885 22.1961 112.281 0.37731 82.5894 0.37731C70.7009 0.37731 59.6393 3.87565 50.2921 9.91891L34.9694 1.07771C31.0915 -1.15001 26.1319 0.186624 23.9078 4.06634L1.21075 43.3787C-1.01513 47.2584 0.319664 52.2217 4.19754 54.4476L11.5096 58.7087L11.4454 58.5822L40.3746 75.5037V75.4395H40.5011ZM44.1883 36.6369C46.4142 41.4077 62.3731 38.6721 62.3731 49.9317C62.3731 55.9108 58.0497 59.2184 52.3273 59.7905V65.8337H46.8597V59.5356C43.1084 58.837 39.8025 57.2456 36.8139 54.5741L40.3104 50.4396C41.9001 51.8385 43.5539 52.858 45.2059 53.6207C49.0838 55.3387 56.6507 55.5294 56.6507 50.5037C56.6507 42.9973 38.1487 48.2778 38.1487 35.4909C38.1487 30.2746 41.9001 26.8404 46.9221 26.0135V19.8419H52.3914V26.0135C55.7596 26.4572 58.6841 27.858 61.3555 29.9574L58.2404 34.3468C56.713 33.265 55.2517 32.3739 53.7262 31.8019C49.5935 30.1481 43.8711 30.7201 43.8711 34.9189C43.8711 35.5551 43.9976 36.1271 44.1883 36.6369Z" fill="#38B6FF"/>
<path fill-rule="evenodd" clip-rule="evenodd" d="M127.54 58.963C112.408 60.6168 97.7853 68.8236 83.6068 83.5174C71.5276 93.6952 60.7832 96.5574 51.3094 92.1679C49.2119 91.2145 47.2409 89.8779 45.2698 88.1617L25.5596 76.5831C26.7055 80.5911 28.2933 84.4708 30.2644 88.0334C40.6916 105.527 61.6724 115.069 82.3361 110.107C102.171 104.636 118.256 95.2226 130.719 81.9278C119.846 101.902 97.976 113.479 65.1066 116.787C65.2973 116.787 83.2896 128.809 107.067 121.812C121.181 117.678 132.943 107.945 139.619 94.8412C146.359 83.5174 156.658 74.7385 168.865 69.8412C155.768 61.6986 141.909 57.3092 127.54 58.8988V58.963Z" fill="#89C400"/>
</svg>
