<svg width="64" height="64" viewBox="0 0 64 64" fill="none" xmlns="http://www.w3.org/2000/svg">
<g clip-path="url(#clip0_3_164)">
<path d="M32 64C49.6731 64 64 49.6731 64 32C64 14.3269 49.6731 0 32 0C14.3269 0 0 14.3269 0 32C0 49.6731 14.3269 64 32 64Z" fill="#0A66C2"/>
<path d="M43.3187 43.325H38.5687V35.8875C38.5687 34.1125 38.5312 31.8312 36.0938 31.8312C33.6188 31.8312 33.2375 33.7625 33.2375 35.7562V43.325H28.4875V28.025H33.05V30.1125H33.1125C33.75 28.9125 35.3 27.6437 37.6125 27.6437C42.425 27.6437 43.3125 30.8125 43.3125 34.9313L43.3187 43.325ZM23.1313 25.9312C21.6 25.9312 20.375 24.6937 20.375 23.175C20.375 21.6562 21.6063 20.4188 23.1313 20.4188C24.6563 20.4188 25.8875 21.6562 25.8875 23.175C25.8875 24.6937 24.65 25.9312 23.1313 25.9312ZM25.5125 43.325H20.75V28.025H25.5125V43.325ZM45.6937 16H18.3687C17.0625 16 16 17.0312 16 18.3125V45.75C16 47.025 17.0562 48.0625 18.3687 48.0625H45.6875C46.9937 48.0625 48.0625 47.0312 48.0625 45.75V18.3125C48.0625 17.0312 46.9937 16 45.6937 16Z" fill="white"/>
</g>
<defs>
<clipPath id="clip0_3_164">
<rect width="64" height="64" fill="white"/>
</clipPath>
</defs>
</svg>
