<svg width="505" height="273" viewBox="0 0 505 273" fill="none" xmlns="http://www.w3.org/2000/svg">
<path d="M7.29289 171.889C7.68342 171.499 8.31658 171.499 8.70711 171.889L15.0711 178.253C15.4616 178.644 15.4616 179.277 15.0711 179.668C14.6805 180.058 14.0474 180.058 13.6569 179.668L8 174.011L2.34315 179.668C1.95262 180.058 1.31946 180.058 0.928932 179.668C0.538408 179.277 0.538408 178.644 0.928932 178.253L7.29289 171.889ZM303.228 261.035L302.581 260.272L303.228 261.035ZM287.047 102.638L287.753 103.345L287.047 102.638ZM386.571 251.463L386.414 250.475L386.571 251.463ZM189.958 138.277L189.958 139.277L189.958 138.277ZM9 172.596C9 174.701 9.02367 176.742 9.07047 178.722L7.07103 178.77C7.02384 176.773 7 174.716 7 172.596H9ZM9.66822 190.42C10.0149 194.644 10.4928 198.514 11.0935 202.05L9.1217 202.385C8.51011 198.784 8.02562 194.857 7.67492 190.583L9.66822 190.42ZM13.7743 213.38C15.1072 217.548 16.6917 220.995 18.4918 223.798L16.809 224.878C14.8959 221.9 13.2437 218.287 11.8693 213.989L13.7743 213.38ZM26.4742 231.614C29.6968 233.403 33.3186 234.175 37.3024 234.071L37.3544 236.071C33.0723 236.182 29.0862 235.351 25.5034 233.362L26.4742 231.614ZM48.5577 231.876C51.9897 230.726 55.583 229.155 59.309 227.231L60.2265 229.008C56.4322 230.967 52.7436 232.583 49.1933 233.773L48.5577 231.876ZM69.416 221.393C72.6162 219.37 75.8806 217.16 79.1934 214.801L80.3534 216.43C77.0165 218.806 73.7213 221.038 70.4846 223.084L69.416 221.393ZM88.6623 207.781C91.7266 205.429 94.8161 202.989 97.9189 200.489L99.1734 202.047C96.0611 204.554 92.9591 207.004 89.88 209.368L88.6623 207.781ZM107.057 193.011C110.082 190.502 113.108 187.967 116.124 185.432L117.411 186.964C114.394 189.499 111.364 192.038 108.334 194.55L107.057 193.011ZM125.166 177.829C128.222 175.263 131.256 172.727 134.256 170.251L135.529 171.794C132.536 174.264 129.506 176.796 126.451 179.36L125.166 177.829ZM143.463 162.777C146.648 160.243 149.779 157.817 152.837 155.539L154.032 157.143C150.994 159.405 147.881 161.818 144.708 164.342L143.463 162.777ZM162.529 148.693C166.076 146.345 169.496 144.281 172.758 142.578L173.684 144.35C170.498 146.014 167.139 148.04 163.633 150.361L162.529 148.693ZM183.922 138.094C186.028 137.563 188.045 137.277 189.958 137.277L189.958 139.277C188.243 139.277 186.391 139.534 184.411 140.033L183.922 138.094ZM189.958 137.277C192.157 137.277 194.271 137.436 196.306 137.744L196.007 139.722C194.074 139.429 192.06 139.277 189.958 139.277L189.958 137.277ZM208.356 141.699C212.079 143.666 215.445 146.228 218.507 149.261L217.099 150.682C214.159 147.768 210.949 145.331 207.422 143.467L208.356 141.699ZM226.436 159.046C228.675 162.417 230.721 166.071 232.611 169.927L230.815 170.808C228.956 167.014 226.952 163.438 224.77 160.152L226.436 159.046ZM237.597 181.371C239.089 185.192 240.482 189.125 241.802 193.111L239.903 193.74C238.591 189.779 237.211 185.88 235.734 182.099L237.597 181.371ZM245.518 204.982C246.712 208.982 247.863 212.98 248.996 216.915L247.074 217.468C245.941 213.531 244.792 209.543 243.601 205.554L245.518 204.982ZM252.467 228.815C253.693 232.905 254.929 236.849 256.209 240.578L254.318 241.228C253.025 237.465 251.781 233.493 250.551 229.389L252.467 228.815ZM260.666 252.054C262.518 256.178 264.499 259.77 266.675 262.686L265.072 263.882C262.779 260.81 260.73 257.078 258.841 252.874L260.666 252.054ZM275.669 270.079C278.95 271.314 282.708 271.369 287.131 269.867L287.774 271.761C282.987 273.386 278.747 273.374 274.965 271.95L275.669 270.079ZM297.698 264.113C299.264 262.985 300.89 261.707 302.581 260.272L303.875 261.797C302.149 263.262 300.481 264.573 298.868 265.736L297.698 264.113ZM302.581 260.272C304.15 258.941 305.687 257.61 307.193 256.279L308.517 257.778C307.001 259.117 305.454 260.457 303.875 261.797L302.581 260.272ZM315.965 248.207C318.902 245.387 321.701 242.575 324.367 239.772L325.817 241.15C323.129 243.976 320.308 246.81 317.35 249.65L315.965 248.207ZM332.422 230.868C335.097 227.752 337.611 224.652 339.968 221.572L341.556 222.787C339.176 225.898 336.639 229.027 333.939 232.171L332.422 230.868ZM346.934 211.863C349.219 208.453 351.315 205.074 353.23 201.73L354.966 202.724C353.027 206.11 350.906 209.529 348.596 212.976L346.934 211.863ZM358.743 191.177C360.499 187.459 362.032 183.795 363.354 180.192L365.231 180.881C363.888 184.541 362.332 188.261 360.552 192.031L358.743 191.177ZM366.907 168.788C367.926 164.804 368.683 160.913 369.198 157.128L371.18 157.397C370.654 161.261 369.882 165.227 368.845 169.284L366.907 168.788ZM370.045 145.3C370.064 141.189 369.786 137.238 369.24 133.466L371.219 133.18C371.78 137.052 372.065 141.102 372.044 145.31L370.045 145.3ZM366.58 121.933C365.322 118.048 363.75 114.429 361.908 111.105L363.657 110.135C365.563 113.575 367.187 117.313 368.483 121.317L366.58 121.933ZM355.131 101.486C352.454 98.4748 349.494 95.8799 346.318 93.742L347.435 92.0828C350.756 94.3181 353.841 97.0254 356.626 100.158L355.131 101.486ZM335.811 88.6105C332.116 87.4183 328.256 86.7627 324.3 86.691L324.336 84.6913C328.491 84.7667 332.546 85.4554 336.425 86.7071L335.811 88.6105ZM312.703 88.141C309.094 89.1093 305.457 90.5729 301.842 92.5688L300.875 90.8179C304.626 88.7473 308.413 87.2213 312.185 86.2093L312.703 88.141ZM292.143 99.3025C290.667 100.55 289.203 101.897 287.753 103.345L286.34 101.93C287.827 100.444 289.332 99.0598 290.852 97.775L292.143 99.3025ZM287.753 103.345C286.545 104.553 285.361 106.012 284.216 107.704L282.56 106.583C283.762 104.806 285.026 103.243 286.34 101.93L287.753 103.345ZM278.908 117.954C277.557 121.298 276.345 124.995 275.309 128.966L273.374 128.461C274.429 124.416 275.667 120.637 277.054 117.205L278.908 117.954ZM272.959 140.351C272.378 144.075 271.949 147.941 271.693 151.901L269.697 151.772C269.957 147.752 270.393 143.826 270.983 140.043L272.959 140.351ZM271.453 163.535C271.545 167.378 271.807 171.261 272.258 175.146L270.271 175.377C269.813 171.428 269.546 167.484 269.454 163.582L271.453 163.535ZM274.162 186.611C274.988 190.391 276.014 194.134 277.255 197.802L275.36 198.443C274.094 194.7 273.049 190.886 272.208 187.038L274.162 186.611ZM281.638 208.535C283.321 212.005 285.235 215.363 287.396 218.574L285.737 219.691C283.52 216.398 281.56 212.958 279.838 209.408L281.638 208.535ZM294.558 227.642C297.139 230.433 299.969 233.053 303.061 235.468L301.83 237.044C298.651 234.561 295.742 231.868 293.09 229L294.558 227.642ZM312.686 241.818C315.96 243.626 319.464 245.242 323.211 246.639L322.512 248.513C318.675 247.082 315.08 245.426 311.719 243.569L312.686 241.818ZM334.312 249.953C337.922 250.785 341.72 251.438 345.714 251.898L345.485 253.885C341.421 253.417 337.549 252.751 333.863 251.902L334.312 249.953ZM357.299 252.664C361.027 252.739 364.902 252.661 368.93 252.419L369.05 254.416C364.971 254.66 361.042 254.739 357.259 254.664L357.299 252.664ZM380.523 251.321C382.455 251.074 384.419 250.792 386.414 250.475L386.728 252.45C384.713 252.771 382.73 253.055 380.777 253.305L380.523 251.321ZM386.414 250.475C388.554 250.135 390.565 249.712 392.455 249.209L392.969 251.142C391.008 251.663 388.93 252.1 386.728 252.45L386.414 250.475ZM403.322 244.736C406.912 242.572 409.791 239.93 412.07 236.87L413.675 238.064C411.238 241.337 408.163 244.153 404.354 246.449L403.322 244.736ZM417.267 226.322C418.369 222.703 419.041 218.75 419.357 214.506L421.351 214.654C421.027 219.014 420.334 223.116 419.18 226.905L417.267 226.322ZM419.403 202.471C419.189 198.6 418.781 194.571 418.224 190.408L420.206 190.142C420.769 194.345 421.182 198.428 421.4 202.36L419.403 202.471ZM416.303 178.379C415.592 174.465 414.796 170.468 413.947 166.406L415.904 165.997C416.756 170.07 417.555 174.085 418.27 178.022L416.303 178.379ZM411.367 154.472C410.498 150.535 409.606 146.548 408.726 142.548L410.679 142.118C411.56 146.121 412.448 150.094 413.32 154.041L411.367 154.472ZM406.158 130.602C405.327 126.602 404.531 122.595 403.797 118.598L405.764 118.236C406.495 122.215 407.288 126.207 408.117 130.196L406.158 130.602ZM401.788 106.512C401.187 102.42 400.682 98.3541 400.302 94.333L402.293 94.1447C402.669 98.1266 403.17 102.158 403.766 106.222L401.788 106.512ZM399.557 82.068C399.46 77.8906 399.541 73.7832 399.837 69.7683L401.831 69.9152C401.541 73.8575 401.461 77.8998 401.557 82.0215L399.557 82.068ZM401.499 57.5656C402.343 53.4746 403.481 49.5159 404.962 45.7189L406.825 46.4454C405.39 50.1273 404.281 53.977 403.458 57.9696L401.499 57.5656ZM410.575 34.6885C412.775 31.2851 415.355 28.0735 418.357 25.0812L419.769 26.4977C416.869 29.3884 414.378 32.4889 412.254 35.7744L410.575 34.6885ZM427.946 17.2692C431.207 15.0933 434.8 13.0972 438.75 11.2959L439.58 13.1156C435.721 14.8753 432.223 16.8202 429.056 18.9329L427.946 17.2692ZM450.234 6.93862C453.934 5.78282 457.879 4.76117 462.082 3.88147L462.492 5.83906C458.346 6.70658 454.464 7.71243 450.83 8.84763L450.234 6.93862ZM474.189 1.84116C478.124 1.32417 482.252 0.912326 486.579 0.610384L486.718 2.60553C482.429 2.90484 478.342 3.31277 474.449 3.82412L474.189 1.84116ZM498.615 0.0686634C500.702 0.0230259 502.83 -5.15772e-06 505 -5.15772e-06V1.99999C502.844 1.99999 500.73 2.02288 498.658 2.06819L498.615 0.0686634Z" fill="#C22412"/>
</svg>
