<svg width="1440" height="3487" viewBox="0 0 1440 3487" fill="none" xmlns="http://www.w3.org/2000/svg">
<g clip-path="url(#clip0_35_21)">
<rect width="1440" height="3487" fill="#FFFEFD"/>
<g opacity="0.14">
<path d="M1075.77 457.431C1072.67 460.672 1067.71 461.482 1060.89 459.862C1054.07 458.566 1048.18 455.487 1043.22 450.626C1038.26 445.766 1037.02 440.095 1039.5 433.614C1055 405.421 1073.29 373.826 1094.37 338.829C1115.14 303.831 1137.15 271.588 1160.39 242.1C1183.64 212.611 1206.74 191.71 1229.68 179.396C1249.52 171.294 1268.27 173.239 1285.94 185.229C1303.3 197.543 1313.37 211.963 1316.16 228.489C1316.78 239.183 1315.39 253.117 1311.98 270.292C1308.57 287.791 1304.69 303.993 1300.35 318.9C1310.27 306.586 1321.43 291.517 1333.83 273.694C1356.46 238.697 1383.27 205.32 1414.27 173.563C1422.64 166.758 1434.58 165.299 1450.08 169.188C1465.58 173.077 1479.68 180.206 1492.39 190.575C1505.1 200.945 1511.3 212.449 1510.99 225.087C1505.41 275.315 1488.82 327.325 1461.24 381.117C1433.65 434.91 1403.11 476.712 1369.64 506.525C1351.04 521.431 1334.14 526.616 1318.95 522.079C1303.45 517.543 1287.8 509.279 1271.99 497.29C1266.41 493.401 1260.52 489.35 1254.32 485.138C1246.57 494.211 1238.82 503.609 1231.07 513.33C1225.8 520.459 1220.22 527.588 1214.33 534.717C1207.2 541.847 1197.28 543.305 1184.57 539.092C1171.55 534.88 1160.55 527.75 1151.56 517.705C1142.57 507.983 1140.25 498.262 1144.58 488.54C1185.19 414.333 1210.92 357.462 1221.77 317.927C1232.31 278.393 1232.78 258.464 1223.17 258.14C1198.68 259.76 1149.54 326.191 1075.77 457.431ZM1296.63 420.49C1294.77 423.406 1293.84 427.943 1293.84 434.1C1293.84 440.257 1294.93 445.928 1297.1 451.112C1299.27 456.621 1302.52 459.862 1306.86 460.834C1311.2 462.13 1316.78 459.214 1323.6 452.084C1351.19 421.3 1374.28 385.978 1392.88 346.12C1411.48 306.586 1421.4 278.393 1422.64 261.543C1407.45 274.829 1386.68 298.484 1360.34 332.51C1333.99 366.535 1312.75 395.862 1296.63 420.49Z" fill="#FDC1C5"/>
<path d="M817.239 451.598C815.379 453.867 812.589 454.353 808.87 453.057C805.15 452.085 801.275 449.978 797.245 446.738C793.215 443.497 790.115 440.095 787.945 436.53C785.466 433.29 784.846 430.535 786.086 428.267C791.045 419.841 796.625 409.958 802.825 398.616C817.394 372.044 834.753 342.717 854.903 310.636C874.742 278.555 896.596 249.391 920.465 223.143C944.334 197.218 969.442 180.044 995.791 171.618C1011.29 168.054 1029.42 169.512 1050.19 175.993C1070.96 182.474 1089.56 192.034 1105.99 204.672C1122.42 217.634 1131.72 231.568 1133.89 246.474C1136.37 281.796 1129.4 322.788 1112.97 369.452C1096.54 416.115 1075.3 458.079 1049.26 495.345C1022.92 532.611 996.411 554.971 969.752 562.424C964.173 563.72 958.903 563.396 953.943 561.452C948.983 559.507 942.939 556.591 935.809 552.702C932.089 550.758 927.749 548.49 922.79 545.897C921.55 547.842 920 550.272 918.14 553.188C914.11 559.021 910.08 564.692 906.05 570.201C902.02 576.034 899.076 579.437 897.216 580.409C886.676 584.297 875.207 582.353 862.807 574.576C850.098 566.799 840.178 557.239 833.048 545.897C825.609 534.88 824.369 526.454 829.329 520.621C853.508 496.966 872.882 470.555 887.451 441.391C901.71 412.55 907.135 390.353 903.725 374.798C907.755 370.262 914.73 369.29 924.649 371.882C934.259 374.474 943.559 379.983 952.548 388.409C961.228 397.158 966.033 408.176 966.963 421.462C966.653 433.452 963.553 447.872 957.663 464.723C951.463 481.573 945.574 495.183 939.994 505.553C953.323 498.424 967.738 480.115 983.237 450.626C998.426 421.138 1011.14 388.895 1021.37 353.897C1031.59 319.224 1035.93 290.059 1034.38 266.403C1032.52 243.072 1021.21 233.674 1000.44 238.211C975.952 245.988 951.308 265.269 926.509 296.054C901.71 326.839 876.137 362.484 849.788 402.991C839.248 419.193 828.399 435.396 817.239 451.598Z" fill="#FDC1C5"/>
<path d="M551.271 451.598C549.411 453.867 546.621 454.353 542.901 453.057C539.181 452.085 535.306 449.978 531.277 446.738C527.247 443.497 524.147 440.095 521.977 436.53C519.497 433.29 518.877 430.535 520.117 428.267C525.077 419.841 530.657 409.958 536.856 398.616C551.426 372.044 568.785 342.717 588.934 310.636C608.773 278.555 630.627 249.391 654.496 223.143C678.365 197.219 703.474 180.044 729.823 171.619C745.322 168.054 763.457 169.512 784.226 175.993C804.995 182.474 823.594 192.034 840.023 204.672C856.452 217.634 865.752 231.568 867.922 246.474C870.402 281.796 863.427 322.788 846.998 369.452C830.569 416.115 809.335 458.079 783.296 495.345C756.947 532.611 730.443 554.971 703.784 562.424C698.204 563.72 692.935 563.396 687.975 561.452C683.015 559.507 676.97 556.591 669.841 552.702C666.121 550.758 661.781 548.49 656.821 545.897C655.581 547.842 654.031 550.272 652.171 553.188C648.142 559.021 644.112 564.692 640.082 570.201C636.052 576.034 633.107 579.437 631.247 580.409C620.708 584.297 609.238 582.353 596.839 574.576C584.129 566.799 574.21 557.239 567.08 545.897C559.64 534.88 558.4 526.454 563.36 520.621C587.539 496.966 606.913 470.555 621.483 441.391C635.742 412.55 641.167 390.353 637.757 374.798C641.787 370.262 648.761 369.29 658.681 371.882C668.291 374.474 677.59 379.983 686.58 388.409C695.26 397.158 700.064 408.176 700.994 421.462C700.684 433.452 697.584 447.872 691.695 464.723C685.495 481.573 679.605 495.183 674.025 505.553C687.355 498.424 701.769 480.115 717.269 450.626C732.458 421.138 745.167 388.895 755.397 353.897C765.626 319.224 769.966 290.059 768.416 266.403C766.556 243.072 755.242 233.674 734.473 238.211C709.984 245.988 685.34 265.269 660.541 296.054C635.742 326.839 610.168 362.485 583.819 402.991C573.28 419.193 562.43 435.396 551.271 451.598Z" fill="#FDC1C5"/>
<path d="M72.3416 592.075C36.0732 572.956 7.70947 551.568 -12.7496 527.913C-33.5187 504.581 -40.1834 469.097 -32.7438 421.462C-28.094 398.778 -18.3295 365.239 -3.45013 320.844C10.1893 279.365 23.0537 236.429 35.1432 192.034C47.2327 147.963 53.2775 110.535 53.2775 79.7501C52.9675 48.6412 41.6529 31.9527 19.3339 29.6843C27.0836 15.4261 41.343 10.8893 62.1121 16.0741C82.5712 20.9349 101.015 34.383 117.445 56.4185C133.874 78.4539 139.454 107.781 134.184 144.398C123.334 193.654 106.75 248.905 84.4311 310.15C71.1017 347.74 60.8721 379.173 53.7424 404.449C43.8229 438.474 42.1179 466.667 48.6276 489.026C55.1373 511.71 73.4266 528.885 103.495 540.55C104.115 480.601 122.404 409.958 158.363 328.621C194.011 247.284 234.465 191.224 279.723 160.439C292.122 153.958 308.086 153.148 327.615 158.008C346.835 162.869 364.659 171.457 381.088 183.77C397.207 196.084 406.972 210.019 410.382 225.573C413.172 251.497 410.072 283.092 401.082 320.358C411.312 307.72 422.781 292.165 435.491 273.695C459.98 236.429 488.188 201.269 520.117 168.216C528.797 161.411 541.041 159.953 556.851 163.841C572.66 167.73 586.919 175.021 599.629 185.715C612.648 196.408 619.003 208.074 618.693 220.712C613.113 271.912 596.219 324.895 568.01 379.659C540.111 434.424 508.958 477.036 474.549 507.497C455.64 522.728 438.436 527.912 422.936 523.052C407.127 518.515 391.318 510.09 375.508 497.776C369.619 493.887 363.574 489.837 357.374 485.624C354.584 489.837 351.33 495.021 347.61 501.178C343.89 507.011 340.17 512.682 336.45 518.191C332.73 523.7 329.475 528.075 326.686 531.315C318.936 538.444 308.706 539.578 295.997 534.718C282.977 530.181 272.128 522.89 263.448 512.844C254.459 502.799 252.289 492.915 256.939 483.193C294.447 417.087 317.076 360.378 324.826 313.067C332.265 266.079 331.49 238.211 322.501 229.462C311.961 222.657 295.532 233.674 273.213 262.515C250.584 291.679 229.195 328.621 209.046 373.34C188.897 418.059 176.962 460.834 173.242 501.664C169.212 542.495 180.682 571.335 207.651 588.186C215.4 593.371 217.725 601.634 214.625 612.976C211.526 624.318 205.481 635.497 196.491 646.515C187.192 657.857 177.582 665.796 167.663 670.333C157.433 675.194 149.218 673.411 143.019 664.986C138.369 657.857 134.494 651.7 131.394 646.515C126.124 636.794 119.925 628.044 112.795 620.267C105.355 612.49 91.8708 603.092 72.3416 592.075ZM403.872 419.031C402.322 421.948 401.392 426.485 401.082 432.642C400.462 439.123 401.082 445.117 402.942 450.626C404.492 456.459 407.282 459.862 411.312 460.834C415.342 462.13 420.921 459.214 428.051 452.085C455.95 420.652 479.354 384.682 498.263 344.176C517.172 303.669 527.247 274.829 528.487 257.654C513.607 271.264 493.303 295.244 467.574 329.593C441.536 364.267 420.301 394.079 403.872 419.031Z" fill="#FDC1C5"/>
<path d="M-334.516 312.095C-340.715 312.743 -344.745 309.664 -346.605 302.859C-348.465 296.378 -348.465 289.573 -346.605 282.444C-345.055 275.639 -342.11 271.75 -337.771 270.778C-324.441 268.834 -311.422 268.348 -298.712 269.32C-286.003 270.292 -271.743 273.533 -255.934 279.041C-254.694 276.449 -253.299 273.533 -251.749 270.292C-244.93 253.765 -234.7 234.16 -221.061 211.477C-207.731 188.793 -190.992 171.132 -170.843 158.495C-156.893 151.689 -139.534 150.879 -118.765 156.064C-98.3059 161.249 -79.2417 170.322 -61.5725 183.284C-43.9033 196.57 -32.4338 211.639 -27.164 228.49C-21.8943 251.821 -22.3592 277.097 -28.5589 304.317C-34.7586 331.862 -43.7483 357.462 -55.5278 381.117C-66.9973 404.773 -78.6217 422.434 -90.4012 434.1C-94.431 438.312 -98.926 442.201 -103.886 445.766C-106.056 447.386 -108.226 449.006 -110.395 450.626C-107.916 464.237 -106.521 477.847 -106.211 491.457C-106.211 505.067 -109.155 518.029 -115.045 530.343C-123.725 544.277 -140.619 551.244 -165.728 551.244C-191.147 551.568 -215.946 543.791 -240.125 527.913C-264.304 512.034 -279.028 487.244 -284.298 453.543C-286.778 430.535 -286.468 408.014 -283.368 385.978C-280.578 364.267 -276.393 342.069 -270.813 319.386C-277.013 315.821 -286.003 313.067 -297.782 311.122C-309.562 309.502 -321.806 309.826 -334.516 312.095ZM-103.886 203.7C-126.825 217.958 -144.184 234.808 -155.963 254.252C-168.053 273.695 -178.127 294.596 -186.187 316.955C-164.798 331.538 -148.524 350.819 -137.364 374.798C-133.024 369.614 -127.29 356.166 -120.16 334.454C-113.34 313.067 -107.76 289.897 -103.421 264.945C-99.3909 239.993 -99.546 219.578 -103.886 203.7ZM-200.137 371.396C-204.476 383.71 -206.801 398.292 -207.111 415.143C-207.731 432.318 -206.956 448.196 -204.786 462.778C-202.616 477.685 -199.672 488.054 -195.952 493.887C-177.662 465.695 -179.057 424.864 -200.137 371.396Z" fill="#FDC1C5"/>
</g>
<path d="M511.293 646.889C511.683 646.499 512.317 646.499 512.707 646.889L519.071 653.253C519.462 653.644 519.462 654.277 519.071 654.668C518.681 655.058 518.047 655.058 517.657 654.668L512 649.011L506.343 654.668C505.953 655.058 505.319 655.058 504.929 654.668C504.538 654.277 504.538 653.644 504.929 653.253L511.293 646.889ZM807.228 736.035L806.581 735.272L807.228 736.035ZM791.047 577.638L791.753 578.345L791.047 577.638ZM890.571 726.463L890.414 725.475L890.571 726.463ZM693.958 613.277L693.958 614.277L693.958 613.277ZM513 647.596C513 649.701 513.024 651.742 513.07 653.722L511.071 653.77C511.024 651.773 511 649.716 511 647.596H513ZM513.668 665.42C514.015 669.644 514.493 673.514 515.093 677.05L513.122 677.385C512.51 673.784 512.026 669.857 511.675 665.583L513.668 665.42ZM517.774 688.38C519.107 692.548 520.692 695.995 522.492 698.798L520.809 699.878C518.896 696.9 517.244 693.287 515.869 688.989L517.774 688.38ZM530.474 706.614C533.697 708.403 537.319 709.175 541.302 709.071L541.354 711.071C537.072 711.182 533.086 710.351 529.503 708.362L530.474 706.614ZM552.558 706.876C555.99 705.726 559.583 704.155 563.309 702.231L564.226 704.008C560.432 705.967 556.744 707.583 553.193 708.773L552.558 706.876ZM573.416 696.393C576.616 694.37 579.881 692.16 583.193 689.801L584.353 691.43C581.017 693.806 577.721 696.038 574.485 698.084L573.416 696.393ZM592.662 682.781C595.727 680.429 598.816 677.989 601.919 675.489L603.173 677.047C600.061 679.554 596.959 682.004 593.88 684.368L592.662 682.781ZM611.057 668.011C614.082 665.502 617.108 662.967 620.124 660.432L621.411 661.964C618.394 664.499 615.364 667.038 612.334 669.55L611.057 668.011ZM629.166 652.829C632.222 650.263 635.256 647.727 638.256 645.251L639.529 646.794C636.536 649.264 633.506 651.796 630.451 654.36L629.166 652.829ZM647.463 637.777C650.648 635.243 653.779 632.817 656.837 630.539L658.032 632.143C654.994 634.405 651.881 636.818 648.708 639.342L647.463 637.777ZM666.529 623.693C670.076 621.345 673.496 619.281 676.758 617.578L677.684 619.35C674.498 621.014 671.139 623.04 667.633 625.361L666.529 623.693ZM687.922 613.094C690.028 612.563 692.045 612.277 693.958 612.277L693.958 614.277C692.243 614.277 690.391 614.534 688.411 615.033L687.922 613.094ZM693.958 612.277C696.157 612.277 698.271 612.436 700.306 612.744L700.007 614.722C698.074 614.429 696.06 614.277 693.958 614.277L693.958 612.277ZM712.356 616.699C716.079 618.666 719.445 621.228 722.507 624.261L721.099 625.682C718.159 622.768 714.949 620.331 711.422 618.467L712.356 616.699ZM730.436 634.046C732.675 637.417 734.721 641.071 736.611 644.927L734.815 645.808C732.956 642.014 730.952 638.438 728.77 635.152L730.436 634.046ZM741.597 656.371C743.089 660.192 744.482 664.125 745.802 668.111L743.903 668.74C742.591 664.779 741.211 660.88 739.734 657.099L741.597 656.371ZM749.518 679.982C750.712 683.982 751.863 687.98 752.996 691.915L751.074 692.468C749.941 688.531 748.792 684.543 747.601 680.554L749.518 679.982ZM756.467 703.815C757.693 707.905 758.929 711.849 760.209 715.578L758.318 716.228C757.025 712.465 755.781 708.493 754.551 704.389L756.467 703.815ZM764.666 727.054C766.518 731.178 768.499 734.77 770.675 737.686L769.072 738.882C766.779 735.81 764.73 732.078 762.841 727.874L764.666 727.054ZM779.669 745.079C782.95 746.314 786.708 746.369 791.131 744.867L791.774 746.761C786.987 748.386 782.747 748.374 778.965 746.95L779.669 745.079ZM801.698 739.113C803.264 737.985 804.89 736.707 806.581 735.272L807.875 736.797C806.149 738.262 804.481 739.573 802.868 740.736L801.698 739.113ZM806.581 735.272C808.15 733.941 809.687 732.61 811.193 731.279L812.517 732.778C811.001 734.117 809.454 735.457 807.875 736.797L806.581 735.272ZM819.965 723.207C822.902 720.387 825.701 717.575 828.367 714.772L829.817 716.15C827.129 718.976 824.308 721.81 821.35 724.65L819.965 723.207ZM836.422 705.868C839.097 702.752 841.611 699.652 843.968 696.572L845.556 697.787C843.176 700.898 840.639 704.027 837.939 707.171L836.422 705.868ZM850.934 686.863C853.219 683.453 855.315 680.074 857.23 676.73L858.966 677.724C857.027 681.11 854.906 684.529 852.596 687.976L850.934 686.863ZM862.743 666.177C864.499 662.459 866.032 658.795 867.354 655.192L869.231 655.881C867.888 659.541 866.332 663.261 864.552 667.031L862.743 666.177ZM870.907 643.788C871.926 639.804 872.683 635.913 873.198 632.128L875.18 632.397C874.654 636.261 873.882 640.227 872.845 644.284L870.907 643.788ZM874.045 620.3C874.064 616.189 873.786 612.238 873.24 608.466L875.219 608.18C875.78 612.052 876.065 616.102 876.044 620.31L874.045 620.3ZM870.58 596.933C869.322 593.048 867.75 589.429 865.908 586.105L867.657 585.135C869.563 588.575 871.187 592.313 872.483 596.317L870.58 596.933ZM859.131 576.486C856.454 573.475 853.494 570.88 850.318 568.742L851.435 567.083C854.756 569.318 857.841 572.025 860.626 575.158L859.131 576.486ZM839.811 563.61C836.116 562.418 832.256 561.763 828.3 561.691L828.336 559.691C832.491 559.767 836.546 560.455 840.425 561.707L839.811 563.61ZM816.703 563.141C813.094 564.109 809.457 565.573 805.842 567.569L804.875 565.818C808.626 563.747 812.413 562.221 816.185 561.209L816.703 563.141ZM796.143 574.302C794.667 575.55 793.203 576.897 791.753 578.345L790.34 576.93C791.827 575.444 793.332 574.06 794.852 572.775L796.143 574.302ZM791.753 578.345C790.545 579.553 789.361 581.012 788.216 582.704L786.56 581.583C787.762 579.806 789.026 578.243 790.34 576.93L791.753 578.345ZM782.908 592.954C781.557 596.298 780.345 599.995 779.309 603.966L777.374 603.461C778.429 599.416 779.667 595.637 781.054 592.205L782.908 592.954ZM776.959 615.351C776.378 619.075 775.949 622.941 775.693 626.901L773.697 626.772C773.957 622.752 774.393 618.826 774.983 615.043L776.959 615.351ZM775.453 638.535C775.545 642.378 775.807 646.261 776.258 650.146L774.271 650.377C773.813 646.428 773.546 642.484 773.454 638.582L775.453 638.535ZM778.162 661.611C778.988 665.391 780.014 669.134 781.255 672.802L779.36 673.443C778.094 669.7 777.049 665.886 776.208 662.038L778.162 661.611ZM785.638 683.535C787.321 687.005 789.235 690.363 791.396 693.574L789.737 694.691C787.52 691.398 785.56 687.958 783.838 684.408L785.638 683.535ZM798.558 702.642C801.139 705.433 803.969 708.053 807.061 710.468L805.83 712.044C802.651 709.561 799.742 706.868 797.09 704L798.558 702.642ZM816.686 716.818C819.96 718.626 823.464 720.242 827.211 721.639L826.512 723.513C822.675 722.082 819.08 720.426 815.719 718.569L816.686 716.818ZM838.312 724.953C841.922 725.785 845.72 726.438 849.714 726.898L849.485 728.885C845.421 728.417 841.549 727.751 837.863 726.902L838.312 724.953ZM861.299 727.664C865.027 727.739 868.902 727.661 872.93 727.419L873.05 729.416C868.971 729.66 865.042 729.739 861.259 729.664L861.299 727.664ZM884.523 726.321C886.455 726.074 888.419 725.792 890.414 725.475L890.728 727.45C888.713 727.771 886.73 728.055 884.777 728.305L884.523 726.321ZM890.414 725.475C892.554 725.135 894.565 724.712 896.455 724.209L896.969 726.142C895.008 726.663 892.93 727.1 890.728 727.45L890.414 725.475ZM907.322 719.736C910.912 717.572 913.791 714.93 916.07 711.87L917.675 713.064C915.238 716.337 912.163 719.153 908.354 721.449L907.322 719.736ZM921.267 701.322C922.369 697.703 923.041 693.75 923.357 689.506L925.351 689.654C925.027 694.014 924.334 698.116 923.18 701.905L921.267 701.322ZM923.403 677.471C923.189 673.6 922.781 669.571 922.224 665.408L924.206 665.142C924.769 669.345 925.182 673.428 925.4 677.36L923.403 677.471ZM920.303 653.379C919.592 649.465 918.796 645.468 917.947 641.406L919.904 640.997C920.756 645.07 921.555 649.085 922.27 653.022L920.303 653.379ZM915.367 629.472C914.498 625.535 913.606 621.548 912.726 617.548L914.679 617.118C915.56 621.121 916.448 625.094 917.32 629.041L915.367 629.472ZM910.158 605.602C909.327 601.602 908.531 597.595 907.797 593.598L909.764 593.236C910.495 597.215 911.288 601.207 912.117 605.196L910.158 605.602ZM905.788 581.512C905.187 577.42 904.682 573.354 904.302 569.333L906.293 569.145C906.669 573.127 907.17 577.158 907.766 581.222L905.788 581.512ZM903.557 557.068C903.46 552.891 903.541 548.783 903.837 544.768L905.831 544.915C905.541 548.858 905.461 552.9 905.557 557.022L903.557 557.068ZM905.499 532.566C906.343 528.475 907.481 524.516 908.962 520.719L910.825 521.445C909.39 525.127 908.281 528.977 907.458 532.97L905.499 532.566ZM914.575 509.689C916.775 506.285 919.355 503.073 922.357 500.081L923.769 501.498C920.869 504.388 918.378 507.489 916.254 510.774L914.575 509.689ZM931.946 492.269C935.207 490.093 938.8 488.097 942.75 486.296L943.58 488.116C939.721 489.875 936.223 491.82 933.056 493.933L931.946 492.269ZM954.234 481.939C957.934 480.783 961.879 479.761 966.082 478.881L966.492 480.839C962.346 481.707 958.464 482.712 954.83 483.848L954.234 481.939ZM978.189 476.841C982.124 476.324 986.252 475.912 990.579 475.61L990.718 477.606C986.429 477.905 982.342 478.313 978.449 478.824L978.189 476.841ZM1002.61 475.069C1004.7 475.023 1006.83 475 1009 475V477C1006.84 477 1004.73 477.023 1002.66 477.068L1002.61 475.069Z" fill="#C22412"/>
<rect opacity="0.5" x="985" y="1388.32" width="1067.32" height="333.684" rx="166.842" transform="rotate(-60 985 1388.32)" fill="url(#paint0_linear_35_21)"/>
<path opacity="0.5" d="M-196.511 859.421C-116.712 813.349 -14.6727 840.69 31.3994 920.489L381.637 1527.12C436.866 1622.78 404.091 1745.1 308.432 1800.32L192.659 1867.17L-257.579 1087.33C-303.651 1007.53 -276.31 905.493 -196.511 859.421V859.421Z" fill="url(#paint1_linear_35_21)"/>
<g filter="url(#filter0_dd_35_21)">
<path fill-rule="evenodd" clip-rule="evenodd" d="M161.25 902.615C163.045 902.615 164.5 901.134 164.5 899.308C164.5 897.481 163.045 896 161.25 896C159.455 896 158 897.481 158 899.308C158 901.134 159.455 902.615 161.25 902.615ZM161.25 935.692C163.045 935.692 164.5 934.211 164.5 932.385C164.5 930.558 163.045 929.077 161.25 929.077C159.455 929.077 158 930.558 158 932.385C158 934.211 159.455 935.692 161.25 935.692ZM164.5 965.462C164.5 967.288 163.045 968.769 161.25 968.769C159.455 968.769 158 967.288 158 965.462C158 963.635 159.455 962.154 161.25 962.154C163.045 962.154 164.5 963.635 164.5 965.462ZM161.25 1001.85C163.045 1001.85 164.5 1000.37 164.5 998.538C164.5 996.712 163.045 995.231 161.25 995.231C159.455 995.231 158 996.712 158 998.538C158 1000.37 159.455 1001.85 161.25 1001.85ZM164.5 1031.62C164.5 1033.44 163.045 1034.92 161.25 1034.92C159.455 1034.92 158 1033.44 158 1031.62C158 1029.79 159.455 1028.31 161.25 1028.31C163.045 1028.31 164.5 1029.79 164.5 1031.62ZM161.25 1068C163.045 1068 164.5 1066.52 164.5 1064.69C164.5 1062.87 163.045 1061.38 161.25 1061.38C159.455 1061.38 158 1062.87 158 1064.69C158 1066.52 159.455 1068 161.25 1068ZM197 899.308C197 901.134 195.545 902.615 193.75 902.615C191.955 902.615 190.5 901.134 190.5 899.308C190.5 897.481 191.955 896 193.75 896C195.545 896 197 897.481 197 899.308ZM193.75 935.692C195.545 935.692 197 934.211 197 932.385C197 930.558 195.545 929.077 193.75 929.077C191.955 929.077 190.5 930.558 190.5 932.385C190.5 934.211 191.955 935.692 193.75 935.692ZM197 965.462C197 967.288 195.545 968.769 193.75 968.769C191.955 968.769 190.5 967.288 190.5 965.462C190.5 963.635 191.955 962.154 193.75 962.154C195.545 962.154 197 963.635 197 965.462ZM193.75 1001.85C195.545 1001.85 197 1000.37 197 998.538C197 996.712 195.545 995.231 193.75 995.231C191.955 995.231 190.5 996.712 190.5 998.538C190.5 1000.37 191.955 1001.85 193.75 1001.85ZM197 1031.62C197 1033.44 195.545 1034.92 193.75 1034.92C191.955 1034.92 190.5 1033.44 190.5 1031.62C190.5 1029.79 191.955 1028.31 193.75 1028.31C195.545 1028.31 197 1029.79 197 1031.62ZM193.75 1068C195.545 1068 197 1066.52 197 1064.69C197 1062.87 195.545 1061.38 193.75 1061.38C191.955 1061.38 190.5 1062.87 190.5 1064.69C190.5 1066.52 191.955 1068 193.75 1068Z" fill="#C22412"/>
</g>
<g style="mix-blend-mode:luminosity" opacity="0.3">
<path opacity="0.92" d="M666.241 1342.78L787.583 1195.49L930.201 848.292L814.704 1314.26L666.241 1342.78Z" fill="#EBEBEB"/>
<path opacity="0.43" d="M393.249 1158.19L537.31 813.476L616.111 949.963L393.249 1158.19Z" fill="#C22412"/>
<path opacity="0.43" d="M930.244 848.152L711.688 1063.84L635.686 932.197L930.244 848.152Z" fill="#EEBB98"/>
<path opacity="0.63" d="M930.244 848.153L787.69 1195.47L711.688 1063.84L930.244 848.153Z" fill="#FFE3D0"/>
<path opacity="0.43" d="M930.244 848.153L537.31 813.476L610.19 939.708L930.244 848.153Z" fill="#D8600F"/>
<path opacity="0.43" d="M393.249 1158.19L711.688 1063.84L635.687 932.197L393.249 1158.19Z" fill="#EAAA7F"/>
<path opacity="0.43" d="M393.249 1158.19L787.69 1195.47L711.688 1063.84L393.249 1158.19Z" fill="#EEBB98"/>
<path opacity="0.63" d="M393.162 1158.31L787.583 1195.49L666.241 1342.78L393.162 1158.31Z" fill="#C0C0C0"/>
<path d="M393.162 1158.31L666.241 1342.78L666.474 1372.94L393.162 1158.31Z" fill="#C0C0C0"/>
<g filter="url(#filter1_f_35_21)">
<path d="M633.976 1249.37C633.976 1253.62 616.841 1252.9 607.757 1265.8C603.563 1271.76 579.267 1266.31 579.267 1262.06C579.267 1257.81 597.264 1244.58 611.06 1244.58C624.857 1244.58 633.976 1245.12 633.976 1249.37Z" fill="#131313" fill-opacity="0.3"/>
</g>
<path d="M814.704 1314.26L666.474 1372.94L666.241 1342.78L814.704 1314.26Z" fill="#DADADA"/>
</g>
<g filter="url(#filter2_dd_35_21)">
<circle cx="1211.5" cy="1208.5" r="16.5" fill="#C22412"/>
</g>
<path opacity="0.5" d="M-318.511 2212.42C-238.712 2166.35 -136.673 2193.69 -90.6006 2273.49L259.637 2880.12C314.866 2975.78 282.091 3098.1 186.432 3153.32L70.6587 3220.17L-379.579 2440.33C-425.651 2360.53 -398.31 2258.49 -318.511 2212.42V2212.42Z" fill="url(#paint2_linear_35_21)"/>
<rect opacity="0.5" x="1021" y="2736.32" width="1067.32" height="333.684" rx="166.842" transform="rotate(-60 1021 2736.32)" fill="url(#paint3_linear_35_21)"/>
<g filter="url(#filter3_dd_35_21)">
<path d="M637 2719.71C637 2719.71 654.472 2723.89 670.786 2713.41C687.101 2702.93 688.434 2730 700.114 2730C711.794 2730 717.762 2719.71 729.442 2719.71C741.122 2719.71 747.09 2730 758.77 2730C770.45 2730 768.741 2713.41 788.098 2713.41C807.454 2713.41 802.374 2725.3 819 2728.83" stroke="#C22412" stroke-width="4" stroke-linecap="round" stroke-dasharray="12 12"/>
</g>
</g>
<defs>
<filter id="filter0_dd_35_21" x="116" y="866" width="123" height="256" filterUnits="userSpaceOnUse" color-interpolation-filters="sRGB">
<feFlood flood-opacity="0" result="BackgroundImageFix"/>
<feColorMatrix in="SourceAlpha" type="matrix" values="0 0 0 0 0 0 0 0 0 0 0 0 0 0 0 0 0 0 127 0" result="hardAlpha"/>
<feOffset dy="12"/>
<feGaussianBlur stdDeviation="21"/>
<feColorMatrix type="matrix" values="0 0 0 0 1 0 0 0 0 0.403922 0 0 0 0 0 0 0 0 0.22 0"/>
<feBlend mode="normal" in2="BackgroundImageFix" result="effect1_dropShadow_35_21"/>
<feColorMatrix in="SourceAlpha" type="matrix" values="0 0 0 0 0 0 0 0 0 0 0 0 0 0 0 0 0 0 127 0" result="hardAlpha"/>
<feOffset dy="8"/>
<feGaussianBlur stdDeviation="9"/>
<feColorMatrix type="matrix" values="0 0 0 0 1 0 0 0 0 0.403922 0 0 0 0 0 0 0 0 0.32 0"/>
<feBlend mode="normal" in2="effect1_dropShadow_35_21" result="effect2_dropShadow_35_21"/>
<feBlend mode="normal" in="SourceGraphic" in2="effect2_dropShadow_35_21" result="shape"/>
</filter>
<filter id="filter1_f_35_21" x="575.267" y="1240.58" width="62.709" height="31.8477" filterUnits="userSpaceOnUse" color-interpolation-filters="sRGB">
<feFlood flood-opacity="0" result="BackgroundImageFix"/>
<feBlend mode="normal" in="SourceGraphic" in2="BackgroundImageFix" result="shape"/>
<feGaussianBlur stdDeviation="2" result="effect1_foregroundBlur_35_21"/>
</filter>
<filter id="filter2_dd_35_21" x="1141" y="1162" width="141" height="141" filterUnits="userSpaceOnUse" color-interpolation-filters="sRGB">
<feFlood flood-opacity="0" result="BackgroundImageFix"/>
<feColorMatrix in="SourceAlpha" type="matrix" values="0 0 0 0 0 0 0 0 0 0 0 0 0 0 0 0 0 0 127 0" result="hardAlpha"/>
<feMorphology radius="6" operator="dilate" in="SourceAlpha" result="effect1_dropShadow_35_21"/>
<feOffset dy="24"/>
<feGaussianBlur stdDeviation="24"/>
<feColorMatrix type="matrix" values="0 0 0 0 0.992157 0 0 0 0 0.756863 0 0 0 0 0.772549 0 0 0 0.18 0"/>
<feBlend mode="multiply" in2="BackgroundImageFix" result="effect1_dropShadow_35_21"/>
<feColorMatrix in="SourceAlpha" type="matrix" values="0 0 0 0 0 0 0 0 0 0 0 0 0 0 0 0 0 0 127 0" result="hardAlpha"/>
<feMorphology radius="6" operator="dilate" in="SourceAlpha" result="effect2_dropShadow_35_21"/>
<feOffset dy="12"/>
<feGaussianBlur stdDeviation="12"/>
<feColorMatrix type="matrix" values="0 0 0 0 0.992157 0 0 0 0 0.756863 0 0 0 0 0.772549 0 0 0 0.18 0"/>
<feBlend mode="multiply" in2="effect1_dropShadow_35_21" result="effect2_dropShadow_35_21"/>
<feBlend mode="normal" in="SourceGraphic" in2="effect2_dropShadow_35_21" result="shape"/>
</filter>
<filter id="filter3_dd_35_21" x="593" y="2679.38" width="270.001" height="106.622" filterUnits="userSpaceOnUse" color-interpolation-filters="sRGB">
<feFlood flood-opacity="0" result="BackgroundImageFix"/>
<feColorMatrix in="SourceAlpha" type="matrix" values="0 0 0 0 0 0 0 0 0 0 0 0 0 0 0 0 0 0 127 0" result="hardAlpha"/>
<feOffset dy="12"/>
<feGaussianBlur stdDeviation="21"/>
<feColorMatrix type="matrix" values="0 0 0 0 1 0 0 0 0 0.403922 0 0 0 0 0 0 0 0 0.22 0"/>
<feBlend mode="normal" in2="BackgroundImageFix" result="effect1_dropShadow_35_21"/>
<feColorMatrix in="SourceAlpha" type="matrix" values="0 0 0 0 0 0 0 0 0 0 0 0 0 0 0 0 0 0 127 0" result="hardAlpha"/>
<feOffset dy="8"/>
<feGaussianBlur stdDeviation="9"/>
<feColorMatrix type="matrix" values="0 0 0 0 1 0 0 0 0 0.403922 0 0 0 0 0 0 0 0 0.32 0"/>
<feBlend mode="normal" in2="effect1_dropShadow_35_21" result="effect2_dropShadow_35_21"/>
<feBlend mode="normal" in="SourceGraphic" in2="effect2_dropShadow_35_21" result="shape"/>
</filter>
<linearGradient id="paint0_linear_35_21" x1="990.502" y1="1732" x2="1710.19" y2="1922.14" gradientUnits="userSpaceOnUse">
<stop stop-color="#FDC1C5" stop-opacity="0"/>
<stop offset="0.734375" stop-color="#FDC1C5"/>
</linearGradient>
<linearGradient id="paint1_linear_35_21" x1="-163.603" y1="627.44" x2="-207.706" y2="1713.87" gradientUnits="userSpaceOnUse">
<stop offset="0.401042" stop-color="#FDC1C5"/>
<stop offset="0.958345" stop-color="#FDC1C5" stop-opacity="0"/>
</linearGradient>
<linearGradient id="paint2_linear_35_21" x1="-285.603" y1="1980.44" x2="-329.706" y2="3066.87" gradientUnits="userSpaceOnUse">
<stop offset="0.40404" stop-color="#FDC1C5"/>
<stop offset="0.958345" stop-color="#FDC1C5" stop-opacity="0"/>
</linearGradient>
<linearGradient id="paint3_linear_35_21" x1="1026.5" y1="3080" x2="1746.19" y2="3270.14" gradientUnits="userSpaceOnUse">
<stop stop-color="#FDC1C5" stop-opacity="0"/>
<stop offset="0.734375" stop-color="#FDC1C5"/>
</linearGradient>
<clipPath id="clip0_35_21">
<rect width="1440" height="3487" fill="white"/>
</clipPath>
</defs>
</svg>
