<svg width="31" height="30" viewBox="0 0 31 30" fill="none" xmlns="http://www.w3.org/2000/svg">
<path d="M30.5508 0H0.550781V30H30.5508V0Z" fill="#FFCA28"/>
<path d="M18.7646 24.9513L20.9734 23.4897C21.1465 24.0335 22.2427 25.3251 23.6273 25.3251C25.0119 25.3251 25.6548 24.5689 25.6548 24.0675C25.6548 22.7012 24.2409 22.2195 23.5619 21.9882C23.4511 21.9505 23.36 21.9194 23.2976 21.8923C23.2656 21.8784 23.2173 21.8598 23.1553 21.8361C22.4 21.5476 19.6135 20.483 19.6135 17.3971C19.6135 13.9982 22.8937 13.6074 23.6356 13.6074C24.1208 13.6074 26.4542 13.6668 27.6163 15.8506L25.4734 17.3462C25.0037 16.3945 24.2231 16.0801 23.7427 16.0801C22.5559 16.0801 22.3086 16.9501 22.3086 17.3462C22.3086 18.4575 23.5981 18.9556 24.6868 19.3761C24.9716 19.4862 25.2427 19.5909 25.4734 19.6999C26.6602 20.2607 28.4075 21.1785 28.4075 24.0675C28.4075 25.5146 27.1938 27.8574 24.1383 27.8574C20.0339 27.8574 18.9459 25.3932 18.7646 24.9513Z" fill="#3E3E3E"/>
<path d="M8.05078 25.2415L10.353 23.7807C10.5333 24.3242 11.2343 25.3264 12.2513 25.3264C13.2684 25.3264 13.789 24.2818 13.789 23.7807V13.9288H16.6203V23.7807C16.6661 25.1396 15.9125 27.8573 12.5864 27.8573C9.52828 27.8573 8.25695 26.0399 8.05078 25.2415Z" fill="#3E3E3E"/>
</svg>
