<svg width="31" height="30" viewBox="0 0 31 30" fill="none" xmlns="http://www.w3.org/2000/svg">
<path d="M15.3953 0.0129383C7.85257 0.0129383 8.32957 3.32303 8.32957 3.32303V6.76251H15.5026V7.84071H5.47291C5.47291 7.84071 0.644531 7.23692 0.644531 15.0054C0.644531 22.7739 4.90774 22.4579 4.90774 22.4579H7.36921V18.8341C7.36921 18.8341 7.2311 14.5073 11.5124 14.5073H18.696C18.696 14.5073 22.7032 14.572 22.7032 10.5697V4.0023C22.7032 4.0023 23.3108 0 15.4346 0L15.3953 0.0129383ZM11.4306 2.31706C11.6856 2.31053 11.9368 2.3809 12.1524 2.51927C12.368 2.65763 12.5383 2.85778 12.6418 3.09439C12.7453 3.33101 12.7774 3.59347 12.7339 3.84858C12.6905 4.10369 12.5735 4.34 12.3977 4.5276C12.2219 4.71521 11.9952 4.8457 11.7464 4.90257C11.4975 4.95943 11.2376 4.94012 10.9996 4.84708C10.7615 4.75403 10.556 4.59143 10.409 4.37984C10.2621 4.16825 10.1802 3.91717 10.1738 3.65835V3.63679C10.1738 3.4649 10.2072 3.29469 10.272 3.13588C10.3368 2.97707 10.4318 2.83277 10.5516 2.71123C10.6713 2.58968 10.8135 2.49326 10.97 2.42748C11.1264 2.3617 11.2941 2.32785 11.4635 2.32785L11.4306 2.31706Z" fill="url(#paint0_linear_57_701)"/>
<path d="M15.6074 29.9978C23.15 29.9978 22.6731 26.677 22.6731 26.677V23.2483H15.5011V22.1701H25.5616C25.5616 22.1701 30.39 22.7178 30.39 14.9946C30.39 7.27142 26.1268 7.54205 26.1268 7.54205H23.6334V11.1185C23.6334 11.1185 23.7715 15.4453 19.4903 15.4453H12.3035C12.3035 15.4453 8.29309 15.3838 8.29309 19.3861V25.9977C8.29309 25.9977 7.68542 30 15.5617 30H15.6042L15.6074 29.9978ZM19.5721 27.6829C19.317 27.6895 19.0659 27.6191 18.8503 27.4807C18.6347 27.3424 18.4643 27.1422 18.3608 26.9056C18.2573 26.669 18.2252 26.4065 18.2687 26.1514C18.3121 25.8963 18.4292 25.66 18.6049 25.4724C18.7807 25.2848 19.0074 25.1543 19.2562 25.0974C19.5051 25.0406 19.765 25.0599 20.003 25.1529C20.2411 25.246 20.4466 25.4086 20.5936 25.6202C20.7406 25.8318 20.8224 26.0828 20.8288 26.3416V26.374C20.8288 26.7211 20.6929 27.0541 20.4511 27.2996C20.2092 27.545 19.8812 27.6829 19.5391 27.6829H19.5721Z" fill="url(#paint1_linear_57_701)"/>
<defs>
<linearGradient id="paint0_linear_57_701" x1="3.58422" y1="2.94879" x2="17.9079" y2="17.0299" gradientUnits="userSpaceOnUse">
<stop stop-color="#387EB8"/>
<stop offset="1" stop-color="#366994"/>
</linearGradient>
<linearGradient id="paint1_linear_57_701" x1="11.9343" y1="12.2598" x2="28.2672" y2="26.3091" gradientUnits="userSpaceOnUse">
<stop stop-color="#FFE052"/>
<stop offset="1" stop-color="#FFC331"/>
</linearGradient>
</defs>
</svg>
