<svg width="28" height="30" viewBox="0 0 28 30" fill="none" xmlns="http://www.w3.org/2000/svg">
<path fill-rule="evenodd" clip-rule="evenodd" d="M9.66849 11.2168C11.7039 8.93805 14.3587 7.78761 17.0579 7.78761C23.1862 7.78761 27.8764 12.7655 27.8764 18.8938C27.8764 25.0221 22.8986 30 16.7703 30C10.6419 30 5.66406 25.0221 5.66406 18.8938V0H9.66849V11.2168ZM9.93397 18.8938C9.93397 22.677 12.9871 25.7301 16.7703 25.7301C20.5534 25.7301 23.6065 22.6549 23.6065 18.8938C23.6065 15.1106 20.5534 12.0575 16.7703 12.0575C12.9871 12.0575 9.93397 15.1327 9.93397 18.8938Z" fill="black"/>
<path d="M2.74336 30C4.25848 30 5.48672 28.7718 5.48672 27.2567C5.48672 25.7416 4.25848 24.5133 2.74336 24.5133C1.22824 24.5133 0 25.7416 0 27.2567C0 28.7718 1.22824 30 2.74336 30Z" fill="#0000FF"/>
</svg>
