<svg width="31" height="30" viewBox="0 0 31 30" fill="none" xmlns="http://www.w3.org/2000/svg">
<path d="M15.6448 0.000139101C18.0825 0.000139101 20.3779 0.569669 22.5309 1.67286L22.8156 1.81521L22.5665 2.01094C21.9615 2.49136 21.4811 3.11413 21.1786 3.82587L21.0896 4.02159L20.9117 3.93263C19.2569 3.14972 17.4953 2.74047 15.6626 2.74047C8.88332 2.74047 3.38515 8.25643 3.38515 15.0179C3.38515 21.7794 8.86553 27.2954 15.6448 27.2954C22.4241 27.2954 27.9223 21.7794 27.9223 15.0179C27.9223 13.3987 27.6198 11.8151 26.9792 10.3205L26.8903 10.1247L27.086 10.0358C27.8155 9.76887 28.4561 9.32404 28.9721 8.75465L29.1678 8.50554L29.2924 8.79023C30.1998 10.7653 30.6447 12.8649 30.6447 14.9823C30.6447 23.2563 23.901 30 15.627 30C7.35308 30 0.609375 23.2563 0.609375 14.9823C0.609375 6.7084 7.35308 -0.0353076 15.6448 0.000139101ZM15.6448 8.18526C19.3992 8.18526 22.4775 11.2457 22.4953 15.0357C22.4953 18.8257 19.4348 21.8862 15.6448 21.8862C11.8548 21.8862 8.79435 18.8257 8.79435 15.0357C8.79435 11.2457 11.8726 8.18526 15.6448 8.18526ZM25.449 2.52695C27.1786 2.52695 28.5806 3.92903 28.5806 5.65859C28.5806 7.38815 27.1786 8.79023 25.449 8.79023C23.7194 8.79023 22.3174 7.38815 22.3174 5.65859C22.3174 3.92903 23.7194 2.52695 25.449 2.52695Z" fill="#3880FF"/>
</svg>
