<svg width="87" height="40" viewBox="0 0 87 40" fill="none" xmlns="http://www.w3.org/2000/svg">
<g id="logo-tamura">
<path d="M10.2117 36.9963C4.64402 30.308 1.19506 14.2088 0.166544 6.99529C-0.279147 5.48148 -0.100871 2.81167 4.17776 4.24291C8.45639 5.67415 8.72609 8.11918 8.32611 9.1628C8.49067 17.8053 13.3773 29.8516 15.8 34.7944C15.8686 35.3449 15.6149 36.7004 14.0515 37.7188C12.4882 38.7372 10.8403 37.6615 10.2117 36.9963Z" fill="#C22412"/>
<path fill-rule="evenodd" clip-rule="evenodd" d="M11.5831 6.99529C14.1658 4.31173 22.5745 -0.250332 35.5475 2.96995C37.1131 3.74978 40.5598 6.35536 41.8215 10.539C43.3985 15.7685 40.3473 28.5671 37.536 33.831C36.9532 34.8861 34.3819 36.9963 28.7593 36.9963C26.5194 37.2371 21.5185 37.7188 19.4341 37.7188C17.3496 37.7188 16.7599 35.127 16.7257 33.831C16.7942 33.4411 17.4319 32.62 19.4341 32.4549C19.5026 32.4434 19.7152 32.4136 20.0169 32.386C20.394 32.3516 19.3655 25.0234 19.057 24.7138C19.057 24.5991 18.3507 24.4041 15.5257 24.5417C12.7007 24.6794 13.2516 21.6173 13.8801 20.0691C14.3601 19.5301 15.992 18.2319 18.6798 17.3511C18.7827 17.3053 18.9884 17.1103 18.9884 16.6974C18.9884 16.5889 19.0021 16.293 19.0207 15.888C19.0909 14.3679 19.232 11.3105 18.9884 10.8486C18.7415 10.3807 17.4913 11.3876 16.8971 11.9496C16.36 11.961 15.0046 11.812 13.8801 11.1239C11.9602 10.1261 11.4117 7.88981 11.3431 7.58017C11.2882 7.33245 11.4802 7.08704 11.5831 6.99529ZM26.2223 14.4955C25.3446 12.734 25.4223 10.2064 25.5709 9.1628C27.7194 8.08477 32.1671 6.69252 32.7705 9.74767C33.312 12.4892 32.3693 21.6489 31.8324 26.8665C31.6214 28.9171 31.473 30.3587 31.502 30.5626C31.5843 31.1406 31.2849 31.331 31.1249 31.3539C28.0256 32.62 26.8394 32.2714 26.6337 31.9388C25.756 29.6543 25.9937 27.1106 26.2223 26.1244L27.148 25.4707C27.9479 25.0005 29.6644 23.6885 30.1307 22.2022C30.7135 20.3444 30.8849 19.1402 30.1307 17.3511C29.5273 15.9199 27.2737 14.8511 26.2223 14.4955Z" fill="#C22412"/>
<path fill-rule="evenodd" clip-rule="evenodd" d="M45.2986 12.7077C45.0649 13.566 44.7377 15.4592 45.2986 16.1647C45.3103 16.1882 45.4177 16.2282 45.7542 16.2C46.1749 16.1647 46.8409 16.1294 47.0161 16.1647C47.1914 16.2 47.577 16.1294 49.7502 19.4807C49.8671 19.6453 50.283 19.9251 51.0121 19.7276C51.9235 19.4807 57.4968 16.9761 58.8288 15.9883C59.8944 15.1981 57.8474 18.4812 56.6906 20.2215C55.9311 21.3033 54.0336 23.8831 52.5194 25.5481C50.6265 27.6294 49.0492 30.4515 48.8389 31.5804C48.6285 32.7092 49.7502 34.473 50.3812 34.7905C51.0121 35.108 51.8183 37.0129 53.4307 33.7322C53.8981 33.1325 55.632 31.5098 58.8288 29.8165C58.9574 29.6754 59.1583 29.6966 58.934 30.9101C58.7096 32.1236 58.8405 34.2143 58.934 35.108C58.969 35.2138 58.948 35.3619 58.5835 35.108C58.1278 34.7905 57.1814 34.7905 56.7958 35.2138C56.4102 35.6371 55.3586 36.4484 56.5504 37.1187L56.601 37.1472C57.8063 37.8253 60.0824 39.106 64.4372 39.9408C65.0915 40.1054 66.3581 40.0254 66.1898 38.3886C65.9795 36.3426 64.4022 29.111 65.1733 24.4193C65.2551 24.2312 65.6571 23.7914 66.6105 23.5374C66.739 23.5257 66.8909 23.5939 66.4703 23.9607C65.9445 24.4193 66.5053 26.8886 67.627 27.3472C67.7906 27.406 68.0827 27.7353 67.9425 28.5819C67.7672 29.6402 68.2229 30.5926 69.3796 30.4162C70.5364 30.2399 72.5344 27.7 72.1137 23.9607C72.0086 23.7373 71.4127 22.9942 69.8704 21.8089C69.7418 21.7031 69.5339 21.3926 69.7302 20.9975L69.7541 20.9755C70.4657 20.319 71.9798 18.922 72.5344 18.8104C72.7096 18.6576 73.0321 18.6058 72.9199 19.6218C73.0485 21.5855 73.2284 26.8534 72.9199 32.2153C72.9199 32.3682 72.7937 32.6104 72.289 32.3564C71.6581 32.0389 70.2559 31.0865 69.9054 31.0512C69.6834 31.0747 69.0782 31.2981 68.4332 32.0037C68.3164 32.086 68.1528 32.3423 68.4332 32.7092C68.7837 33.1678 71.1673 37.542 75.619 38.7414C76.4252 38.906 78.3951 38.9883 79.8253 38.0006C80.059 37.7419 80.4913 36.9494 80.3511 35.8488C80.1758 34.473 79.7201 26.2184 80.0356 22.0911C80.3511 17.9638 80.1407 17.5052 80.7366 14.2245C80.7133 14.0834 80.8979 13.8083 81.8233 13.8365C82.279 13.8835 83.5413 13.2297 85.8407 11.6494C88.1402 10.069 86.495 6.96941 85.385 5.61716C85.0345 5.05274 84.4592 4.19202 84.0666 3.85337C84.0549 3.77106 83.8914 3.65582 83.3305 3.85337C82.7697 4.05091 82.0219 3.77105 81.7181 3.60643C81.5078 3.58291 81.0661 3.14078 80.982 1.56042C81.0287 1.38404 80.7296 1.00305 79.1593 0.890171C77.1963 0.749067 74.322 0.0435457 73.5158 0.00826967C73.3055 -0.0505238 72.9129 0.177595 73.0251 1.56042C73.1653 3.28894 73.5509 5.47606 73.0251 8.12176C72.6045 10.2383 71.1439 12.1785 70.4663 12.884C69.6367 13.7659 67.7532 15.6215 66.8559 15.9883C65.9585 16.3552 65.7809 14.0717 65.8043 12.884C65.8276 10.7557 66.0286 5.84998 66.6455 3.25366C66.6572 2.67749 66.3301 1.46164 64.928 1.20765C63.5259 0.953668 60.932 1.10183 59.8103 1.20765C59.0742 1.44283 57.6931 2.18127 58.0577 3.25366C58.5133 4.59416 58.934 8.26285 58.268 10.1325C57.7352 11.6282 55.3586 12.0021 54.2369 12.0021C53.5826 12.1785 52.0216 12.5666 51.0121 12.7077C49.7502 12.884 47.6821 12.0021 47.0161 12.0021C46.4833 12.0021 45.6491 12.4725 45.2986 12.7077ZM58.6536 25.1248C58.2446 25.3365 57.4828 25.6892 57.7071 25.407C57.9304 25.1261 58.4732 23.8899 58.7202 23.2987C58.6548 23.4586 58.5548 23.8924 58.6536 24.4193C58.754 24.9555 58.6954 25.1131 58.6536 25.1248Z" fill="#C22412"/>
</g>
</svg>
