<svg width="800" height="800" viewBox="0 0 800 800" fill="none" xmlns="http://www.w3.org/2000/svg">
<path d="M369.653 105.76C355.467 80 339.093 34.08 320 28.2134C352.907 28.5867 394.667 48.5334 402.987 76.2134C413.173 44.48 440.32 44.48 457.653 43.3067C431.413 66.7734 429.653 90.2934 429.653 100.907C429.653 111.52 375.893 117.333 369.653 105.76Z" fill="#FFC533" stroke="black" stroke-width="10.6667" stroke-linecap="round" stroke-linejoin="round"/>
<path d="M726.613 502.56C726.613 653.12 537.44 737.76 400 737.76C262.56 737.76 73.3867 653.173 73.3867 502.56C73.3867 437.333 117.333 394.667 151.2 325.333C203.253 218.667 225.44 91.5734 400 91.5734C574.56 91.5734 596.747 218.667 648.8 325.333C682.667 394.667 726.613 437.333 726.613 502.56Z" fill="#FFC533" stroke="black" stroke-width="21.3333" stroke-miterlimit="10"/>
<path d="M333.038 333.619C341.425 287.423 324.448 245.657 295.119 240.332C265.79 235.007 235.215 268.14 226.828 314.337C218.441 360.533 235.418 402.299 264.747 407.624C294.076 412.949 324.651 379.816 333.038 333.619Z" fill="white" stroke="black" stroke-width="10.6667" stroke-miterlimit="10"/>
<path d="M307.738 360.792C311.401 340.621 301.706 321.97 286.085 319.134C270.464 316.298 254.832 330.351 251.17 350.522C247.508 370.693 257.202 389.344 272.823 392.18C288.444 395.016 304.076 380.963 307.738 360.792Z" fill="black"/>
<path d="M535.256 407.661C564.586 402.337 581.563 360.57 573.176 314.374C564.789 268.178 534.214 235.045 504.885 240.369C475.555 245.694 458.578 287.46 466.965 333.657C475.352 379.853 505.927 412.986 535.256 407.661Z" fill="white" stroke="black" stroke-width="10.6667" stroke-miterlimit="10"/>
<path d="M527.128 392.219C542.749 389.383 552.443 370.732 548.781 350.561C545.119 330.39 529.487 316.337 513.866 319.173C498.245 322.009 488.551 340.66 492.213 360.831C495.875 381.002 511.507 395.055 527.128 392.219Z" fill="black"/>
<path d="M633.706 611.52C587.146 683.68 600.213 766.187 388.693 766.187C193.866 766.187 205.92 683.413 162.986 611.52C136.32 566.613 110.346 528.533 132.906 508.747C155.466 488.96 221.706 507.36 268.586 507.36C315.466 507.36 321.493 433.173 388.693 433.173C461.706 433.173 468.213 507.36 519.093 507.36C569.973 507.36 641.226 488.48 666.4 508.747C691.573 529.013 662.666 566.613 633.706 611.52Z" fill="#EA6726" stroke="black" stroke-width="21.3333" stroke-miterlimit="10"/>
<path d="M312.534 565.013C303.414 549.013 305.867 537.067 314.56 532.107C323.254 527.147 334.827 531.093 343.947 546.987C353.067 562.88 356.267 584.8 347.574 589.653C338.88 594.507 321.654 580.907 312.534 565.013Z" fill="black"/>
<path d="M487.466 565.013C496.586 549.013 494.133 537.067 485.44 532.107C476.746 527.147 465.173 531.093 456.053 546.987C446.933 562.88 443.733 584.8 452.426 589.653C461.12 594.507 478.346 580.907 487.466 565.013Z" fill="black"/>
</svg>
