<svg width="800" height="800" viewBox="0 0 800 800" fill="none" xmlns="http://www.w3.org/2000/svg">
<g clip-path="url(#clip0_58_728)">
<path d="M768.552 244.301C748.409 196.67 719.579 153.884 682.859 117.153C646.114 80.4336 603.319 51.589 555.71 31.4478C506.396 10.5862 454.002 0.0015564 399.999 0.0015564C346.007 0.0015564 293.616 10.5847 244.299 31.4478C196.668 51.589 153.883 80.4352 117.15 117.153C80.432 153.884 51.5874 196.67 31.4447 244.301C10.5847 293.618 0 346.01 0 400.001C0 454.002 10.5831 506.396 31.4462 555.712C51.5874 603.321 80.4336 646.116 117.152 682.836C153.883 719.58 196.668 748.411 244.301 768.552C293.618 789.403 346.009 799.998 400.001 799.998C454.004 799.998 506.398 789.403 555.712 768.552C603.321 748.409 646.116 719.579 682.861 682.836C719.58 646.116 748.411 603.319 768.554 555.712C789.404 506.396 800 454.002 800 400.001C799.998 346.01 789.403 293.618 768.552 244.301Z" fill="#ED5564"/>
<path d="M0.15918 411.231C1.52641 461.254 12.0236 509.815 31.446 555.712C51.5873 603.321 80.4334 646.116 117.152 682.836C153.882 719.58 196.668 748.411 244.301 768.552C293.618 789.403 346.008 799.998 400.001 799.998C454.004 799.998 506.397 789.403 555.711 768.552C603.321 748.409 646.116 719.579 682.86 682.836C719.58 646.116 748.411 603.319 768.554 555.712C787.989 509.815 798.486 461.254 799.853 411.231H0.15918Z" fill="#E6E9ED"/>
<path d="M798.094 439.405C799.363 426.367 799.998 413.232 799.998 400.001C799.998 385.132 799.192 370.386 797.606 355.798C777.732 358.862 749.192 362.854 713.232 366.82C644.967 374.352 535.252 383.336 399.999 383.336C264.758 383.336 155.03 374.352 86.7791 366.82C50.8062 362.853 22.2772 358.862 2.40476 355.798C0.806274 370.386 0 385.133 0 400.001C0 413.232 0.634394 426.369 1.90474 439.405C66.7973 449.171 209.766 466.65 399.999 466.65C590.233 466.65 733.2 449.171 798.094 439.405Z" fill="#434A54"/>
<path d="M483.348 416.662C483.348 462.693 446.017 499.999 399.999 499.999C353.979 499.999 316.662 462.693 316.662 416.662C316.662 370.641 353.979 333.336 399.999 333.336C446.017 333.338 483.348 370.642 483.348 416.662Z" fill="#E6E9ED"/>
<path d="M400 266.664C317.285 266.664 250 333.961 250 416.664C250 499.366 317.286 566.649 400 566.649C482.713 566.649 549.998 499.365 549.998 416.664C549.998 333.961 482.715 266.664 400 266.664ZM400 483.35C363.246 483.35 333.337 453.418 333.337 416.664C333.337 379.908 363.244 350.001 400 350.001C436.768 350.001 466.649 379.908 466.649 416.664C466.649 453.416 436.768 483.35 400 483.35Z" fill="#434A54"/>
<path opacity="0.2" d="M768.552 244.301C748.409 196.67 719.579 153.884 682.859 117.153C646.114 80.4336 603.319 51.589 555.71 31.4478C506.396 10.5862 454.002 0.0015564 399.999 0.0015564C394.421 0.0015564 388.866 0.123435 383.336 0.343754C431.445 2.29694 478.123 12.7347 522.362 31.4478C570.016 51.589 612.791 80.4352 649.508 117.153C686.228 153.884 715.086 196.67 735.224 244.301C756.098 293.618 766.646 346.01 766.646 400.002C766.646 454.004 756.098 506.398 735.224 555.713C715.085 603.322 686.228 646.117 649.508 682.837C612.791 719.582 570.016 748.413 522.362 768.554C478.123 787.256 431.444 797.705 383.336 799.658C388.866 799.878 394.419 800 399.999 800C454.002 800 506.396 789.404 555.71 768.554C603.319 748.411 646.114 719.58 682.859 682.837C719.579 646.117 748.409 603.321 768.552 555.713C789.403 506.398 799.998 454.004 799.998 400.002C799.998 346.01 789.403 293.618 768.552 244.301Z" fill="white"/>
<path opacity="0.1" d="M31.4462 555.712C51.5874 603.321 80.4336 646.116 117.152 682.836C153.883 719.58 196.668 748.411 244.301 768.552C293.618 789.403 346.009 799.998 400.001 799.998C405.579 799.998 411.134 799.877 416.664 799.656C368.555 797.703 321.864 787.253 277.625 768.552C229.994 748.409 187.221 719.579 150.49 682.836C113.76 646.116 84.9259 603.319 64.7722 555.712C43.9091 506.398 33.3385 454.004 33.3385 400.001C33.3385 346.009 43.9091 293.616 64.7706 244.299C84.9244 196.668 113.758 153.881 150.489 117.164C187.22 80.4336 229.993 51.5874 277.624 31.4462C321.863 12.7332 368.553 2.29537 416.662 0.342191C411.132 0.123435 405.578 0.0015564 399.999 0.0015564C346.007 0.0015564 293.616 10.5847 244.299 31.4478C196.668 51.589 153.883 80.4352 117.15 117.166C80.432 153.884 51.5874 196.67 31.4447 244.301C10.5847 293.618 0 346.01 0 400.001C0 454.002 10.5847 506.398 31.4462 555.712Z" fill="black"/>
</g>
<defs>
<clipPath id="clip0_58_728">
<rect width="800" height="800" fill="white"/>
</clipPath>
</defs>
</svg>
