<svg width="800" height="800" viewBox="0 0 800 800" fill="none" xmlns="http://www.w3.org/2000/svg">
<path d="M183.333 400C183.333 457.464 206.16 512.574 246.793 553.207C287.426 593.839 342.536 616.667 400 616.667C457.463 616.667 512.573 593.839 553.206 553.207C593.839 512.574 616.666 457.464 616.666 400C616.666 342.536 593.839 287.426 553.206 246.794C512.573 206.161 457.463 183.333 400 183.333C342.536 183.333 287.426 206.161 246.793 246.794C206.16 287.426 183.333 342.536 183.333 400Z" fill="#EFD358"/>
<path d="M66.667 416.667H33.3337C28.9134 416.667 24.6742 414.911 21.5485 411.785C18.4229 408.66 16.667 404.42 16.667 400C16.667 395.58 18.4229 391.341 21.5485 388.215C24.6742 385.089 28.9134 383.333 33.3337 383.333H66.667C71.0873 383.333 75.3265 385.089 78.4521 388.215C81.5777 391.341 83.3337 395.58 83.3337 400C83.3337 404.42 81.5777 408.66 78.4521 411.785C75.3265 414.911 71.0873 416.667 66.667 416.667ZM163.334 180C161.145 180.002 158.977 179.572 156.955 178.734C154.933 177.896 153.096 176.667 151.55 175.117L128.217 151.783C126.625 150.246 125.355 148.407 124.482 146.373C123.609 144.34 123.149 142.153 123.13 139.94C123.11 137.727 123.532 135.532 124.37 133.484C125.208 131.436 126.446 129.575 128.01 128.01C129.575 126.445 131.436 125.208 133.484 124.37C135.533 123.532 137.727 123.11 139.94 123.129C142.153 123.148 144.34 123.608 146.374 124.482C148.407 125.355 150.246 126.625 151.784 128.217L175.117 151.55C177.447 153.881 179.034 156.85 179.677 160.083C180.32 163.315 179.989 166.666 178.728 169.711C177.467 172.756 175.331 175.359 172.591 177.19C169.851 179.021 166.629 179.999 163.334 180ZM400 83.3333C397.812 83.3333 395.644 82.9023 393.622 82.0647C391.6 81.2271 389.763 79.9994 388.215 78.4518C386.668 76.9042 385.44 75.0668 384.602 73.0447C383.765 71.0226 383.334 68.8554 383.334 66.6667V33.3334C383.334 28.9131 385.09 24.6738 388.215 21.5482C391.341 18.4226 395.58 16.6667 400 16.6667C404.421 16.6667 408.66 18.4226 411.785 21.5482C414.911 24.6738 416.667 28.9131 416.667 33.3334V66.6667C416.667 68.8554 416.236 71.0226 415.398 73.0447C414.561 75.0668 413.333 76.9042 411.785 78.4518C410.238 79.9994 408.4 81.2271 406.378 82.0647C404.356 82.9023 402.189 83.3333 400 83.3333ZM636.667 180C633.371 179.999 630.15 179.021 627.409 177.19C624.669 175.359 622.534 172.756 621.272 169.711C620.011 166.666 619.681 163.315 620.324 160.083C620.967 156.85 622.554 153.881 624.884 151.55L648.217 128.217C649.754 126.625 651.594 125.355 653.627 124.482C655.66 123.608 657.847 123.148 660.06 123.129C662.273 123.11 664.468 123.532 666.516 124.37C668.564 125.208 670.425 126.445 671.99 128.01C673.555 129.575 674.793 131.436 675.631 133.484C676.469 135.532 676.89 137.727 676.871 139.94C676.852 142.153 676.392 144.34 675.519 146.373C674.645 148.407 673.376 150.246 671.784 151.783L648.45 175.117C646.905 176.667 645.068 177.896 643.046 178.734C641.024 179.572 638.856 180.002 636.667 180ZM766.667 416.667H733.334C728.913 416.667 724.674 414.911 721.549 411.785C718.423 408.66 716.667 404.42 716.667 400C716.667 395.58 718.423 391.341 721.549 388.215C724.674 385.089 728.913 383.333 733.334 383.333H766.667C771.087 383.333 775.327 385.089 778.452 388.215C781.578 391.341 783.334 395.58 783.334 400C783.334 404.42 781.578 408.66 778.452 411.785C775.327 414.911 771.087 416.667 766.667 416.667Z" fill="#EFD358"/>
<path d="M633.334 783.333H166.667C83.967 783.333 16.667 716.05 16.667 633.333C16.667 550.617 83.967 483.333 166.667 483.333C180.2 483.333 193.717 485.25 207.034 489.067C224.107 457.143 249.52 430.449 280.567 411.829C311.614 393.209 347.131 383.361 383.334 383.333C421.604 383.338 459.068 394.331 491.272 415.007C523.477 435.683 549.067 465.171 565 499.967C586.113 489.018 609.551 483.313 633.334 483.333C716.034 483.333 783.334 550.617 783.334 633.333C783.334 716.05 716.034 783.333 633.334 783.333Z" fill="#E0E0E0"/>
</svg>
