<svg xmlns="http://www.w3.org/2000/svg" width="86" height="128" viewBox="0 0 86 128" fill="none">
  <path d="M23.356 21.5601C19.1533 25.4349 14.9373 31.6869 14.9373 31.6869C14.9373 31.6869 13.868 32.2756 13.4732 31.931C13.1071 31.6114 13.3512 30.4668 13.3512 30.4668C13.3512 30.4668 16.4469 26.1836 18.5976 23.6343C21.9945 19.608 23.9344 17.8474 28.1144 14.6056C34.3958 9.73397 40.6476 7.22923 42.3894 6.43092C45.3177 5.08884 49.1 3.62474 55.2005 2.64865C58.591 2.10617 66.2884 1.9085 69.7196 2.03859C72.785 2.15482 76.3517 2.52786 79.3583 3.13665C81.7831 3.62764 83.7506 4.23475 83.7506 4.23475V9.35915C83.7506 9.35915 80.9278 8.32114 78.1382 7.77307C74.8785 7.13262 73.0295 6.71465 69.7196 6.43092C64.8773 6.01583 60.6415 5.90085 55.8105 6.43092C50.709 6.99066 47.829 7.74511 42.9995 9.4812C38.6078 11.0599 36.2157 12.3692 32.2627 14.8496C28.8077 17.0175 26.3547 18.7953 23.356 21.5601Z" fill="#059D02"/>
  <path d="M41.9014 19.486C41.2459 18.0245 43.6096 16.8018 43.6096 16.8018C43.6096 16.8018 49.4909 14.1915 53.7364 13.5075C58.3502 12.7641 60.935 12.5315 65.9373 12.6534C69.1795 12.7325 72.5514 13.2103 75.6981 13.9955C79.1044 14.8456 83.7506 16.9237 83.7506 16.9237V19.608C83.7506 19.608 80.3429 18.1219 77.7722 17.4118C74.4486 16.4936 71.6905 16.0041 68.2555 15.7037C64.3132 15.3588 61.5444 15.6646 57.6407 16.3137C52.8844 17.1047 46.0498 19.974 46.0498 19.974C46.0498 19.974 42.6059 21.0565 41.9014 19.486Z" fill="#059D02"/>
  <path d="M36.533 36.5673C36.045 36.5673 35.6789 36.3232 35.6789 35.8352C35.6789 35.3472 41.2333 30.7391 45.3177 28.3927C46.7817 27.5516 50.6861 25.4843 54.1024 24.6104C57.2535 23.8043 60.3667 23.308 63.6191 23.2683C67.3939 23.2222 71.2736 23.4588 74.966 24.2443C78.888 25.0787 83.7506 27.5386 83.7506 27.5386V31.0769C83.7506 31.0769 80.5583 29.2532 77.0402 28.1487C72.0099 26.5694 66.8081 25.3987 61.5449 25.7084C58.1199 25.9099 56.0542 26.0905 52.7603 27.0506C49.8466 27.8998 48.3756 28.4554 45.6837 29.8568C41.8023 31.8773 37.0209 36.5673 36.533 36.5673Z" fill="#059D02"/>
  <path d="M46.0498 38.6414C45.3897 38.0056 47.3468 35.8295 48.0835 35.2843C50.2122 33.7089 55.4111 32.1657 57.0446 31.931C59.7367 31.5442 62.3758 31.2181 65.9373 31.6869C69.7622 32.1904 73.4002 33.3021 77.0402 34.5803C79.6599 35.5003 83.6287 37.2527 83.6287 37.2527L83.5066 39.1248C83.5066 39.1248 79.6112 37.4416 77.0402 36.5673C73.3113 35.2992 70.4016 34.3253 67.286 34.0041C64.7739 33.7452 63.7869 33.7089 61.5449 33.7089C58.999 33.7089 56.6124 33.9753 54.1367 34.5803C51.7794 35.1564 51.4843 35.3848 49.3637 36.5645C48.0289 37.307 46.716 39.2833 46.0498 38.6414Z" fill="#059D02"/>
  <path d="M66.7913 39.9835V38.6414C66.7913 38.6414 69.8357 38.5135 72.7698 39.4955L72.7802 39.499C74.6592 40.1279 76.9436 40.8924 78.6263 41.9357C80.6073 43.164 83.7506 45.962 83.7506 45.962L83.6287 48.6463C83.6287 48.6463 81.3976 45.9229 79.6024 44.4979C78.1531 43.3476 77.1369 42.705 75.4541 41.9357C71.1837 39.9836 66.7913 39.9835 66.7913 39.9835Z" fill="#059D02"/>
  <path d="M72.7698 46.8058C72.7698 46.8058 73.337 46.8826 73.6868 46.8058C74.8586 46.5485 73.1291 45.6037 72.0366 45.108C70.6368 44.4728 70.4454 44.3992 68.5661 44.2455C65.7083 44.0116 62.4451 44.0741 59.9603 44.742C57.0446 45.5256 53.2041 48.086 53.2041 48.086L54.4843 49.3661C54.4843 49.3661 57.917 46.999 58.3248 46.8058C60.643 45.7077 63.3751 44.742 67.5234 45.108C70.8746 45.4037 72.7698 46.8058 72.7698 46.8058Z" fill="#059D02"/>
  <path d="M78.3823 50.2829C78.8075 50.6463 78.8075 50.6463 79.6024 51.4068L79.6209 51.4244C80.3195 52.0927 80.6789 52.4366 81.5545 54.0147C82.6377 55.9668 83.5066 58.407 83.5066 58.407L82.342 54.0147C82.342 54.0147 81.1347 52.2139 80.6169 51.4068C80.0141 50.4671 78.1733 50.1042 78.3823 50.2829Z" fill="#059D02"/>
  <path d="M23.356 21.5601C19.1533 25.4349 14.9373 31.6869 14.9373 31.6869C14.9373 31.6869 13.868 32.2756 13.4732 31.931C13.1071 31.6114 13.3512 30.4668 13.3512 30.4668C13.3512 30.4668 16.4469 26.1836 18.5976 23.6343C21.9945 19.608 23.9344 17.8474 28.1144 14.6056C34.3958 9.73397 40.6476 7.22923 42.3894 6.43092C45.3177 5.08884 49.1 3.62474 55.2005 2.64865C58.591 2.10617 66.2884 1.9085 69.7196 2.03859C72.785 2.15482 76.3517 2.52786 79.3583 3.13665C81.7831 3.62764 83.7506 4.23475 83.7506 4.23475V9.35915C83.7506 9.35915 80.9278 8.32114 78.1382 7.77307C74.8785 7.13262 73.0295 6.71465 69.7196 6.43092C64.8773 6.01583 60.6415 5.90085 55.8105 6.43092C50.709 6.99066 47.829 7.74511 42.9995 9.4812C38.6078 11.0599 36.2157 12.3692 32.2627 14.8496C28.8077 17.0175 26.3547 18.7953 23.356 21.5601Z" stroke="#059D02" stroke-width="2.5"/>
  <path d="M41.9014 19.486C41.2459 18.0245 43.6096 16.8018 43.6096 16.8018C43.6096 16.8018 49.4909 14.1915 53.7364 13.5075C58.3502 12.7641 60.935 12.5315 65.9373 12.6534C69.1795 12.7325 72.5514 13.2103 75.6981 13.9955C79.1044 14.8456 83.7506 16.9237 83.7506 16.9237V19.608C83.7506 19.608 80.3429 18.1219 77.7722 17.4118C74.4486 16.4936 71.6905 16.0041 68.2555 15.7037C64.3132 15.3588 61.5444 15.6646 57.6407 16.3137C52.8844 17.1047 46.0498 19.974 46.0498 19.974C46.0498 19.974 42.6059 21.0565 41.9014 19.486Z" stroke="#059D02" stroke-width="2.5"/>
  <path d="M36.533 36.5673C36.045 36.5673 35.6789 36.3232 35.6789 35.8352C35.6789 35.3472 41.2333 30.7391 45.3177 28.3927C46.7817 27.5516 50.6861 25.4843 54.1024 24.6104C57.2535 23.8043 60.3667 23.308 63.6191 23.2683C67.3939 23.2222 71.2736 23.4588 74.966 24.2443C78.888 25.0787 83.7506 27.5386 83.7506 27.5386V31.0769C83.7506 31.0769 80.5583 29.2532 77.0402 28.1487C72.0099 26.5694 66.8081 25.3987 61.5449 25.7084C58.1199 25.9099 56.0542 26.0905 52.7603 27.0506C49.8466 27.8998 48.3756 28.4554 45.6837 29.8568C41.8023 31.8773 37.0209 36.5673 36.533 36.5673Z" stroke="#059D02" stroke-width="2.5"/>
  <path d="M46.0498 38.6414C45.3897 38.0056 47.3468 35.8295 48.0835 35.2843C50.2122 33.7089 55.4111 32.1657 57.0446 31.931C59.7367 31.5442 62.3758 31.2181 65.9373 31.6869C69.7622 32.1904 73.4002 33.3021 77.0402 34.5803C79.6599 35.5003 83.6287 37.2527 83.6287 37.2527L83.5066 39.1248C83.5066 39.1248 79.6112 37.4416 77.0402 36.5673C73.3113 35.2992 70.4016 34.3253 67.286 34.0041C64.7739 33.7452 63.7869 33.7089 61.5449 33.7089C58.999 33.7089 56.6124 33.9753 54.1367 34.5803C51.7794 35.1564 51.4843 35.3848 49.3637 36.5645C48.0289 37.307 46.716 39.2833 46.0498 38.6414Z" stroke="#059D02" stroke-width="2.5"/>
  <path d="M66.7913 39.9835V38.6414C66.7913 38.6414 69.8357 38.5135 72.7698 39.4955L72.7802 39.499C74.6592 40.1279 76.9436 40.8924 78.6263 41.9357C80.6073 43.164 83.7506 45.962 83.7506 45.962L83.6287 48.6463C83.6287 48.6463 81.3976 45.9229 79.6024 44.4979C78.1531 43.3476 77.1369 42.705 75.4541 41.9357C71.1837 39.9836 66.7913 39.9835 66.7913 39.9835Z" stroke="#059D02" stroke-width="2.5"/>
  <path d="M72.7698 46.8058C72.7698 46.8058 73.337 46.8826 73.6868 46.8058C74.8586 46.5485 73.1291 45.6037 72.0366 45.108C70.6368 44.4728 70.4454 44.3992 68.5661 44.2455C65.7083 44.0116 62.4451 44.0741 59.9603 44.742C57.0446 45.5256 53.2041 48.086 53.2041 48.086L54.4843 49.3661C54.4843 49.3661 57.917 46.999 58.3248 46.8058C60.643 45.7077 63.3751 44.742 67.5234 45.108C70.8746 45.4037 72.7698 46.8058 72.7698 46.8058Z" stroke="#059D02" stroke-width="2.5"/>
  <path d="M78.3823 50.2829C78.8075 50.6463 78.8075 50.6463 79.6024 51.4068L79.6209 51.4244C80.3195 52.0927 80.6789 52.4366 81.5545 54.0147C82.6377 55.9668 83.5066 58.407 83.5066 58.407L82.342 54.0147C82.342 54.0147 81.1347 52.2139 80.6169 51.4068C80.0141 50.4671 78.1733 50.1042 78.3823 50.2829Z" stroke="#059D02" stroke-width="2.5"/>
  <path d="M49.3661 76.2495C48.9922 76.8339 48.086 74.9694 48.086 74.9694C48.086 74.9694 47.2306 73.2375 46.8058 72.409C46.6247 72.0558 45.5256 69.8047 45.5256 67.2884V63.4479V62.1677C45.5256 61.2868 48.1268 53.2825 48.1268 53.2825C48.1268 53.2825 46.903 61.5988 46.8058 62.1677C46.7086 62.7366 46.4469 66.1151 46.8058 68.5686C46.9712 69.6993 47.2773 70.7918 48.086 72.409L49.3661 74.9694C49.3661 74.9694 49.9335 75.3628 49.3661 76.2495Z" fill="#006158"/>
  <path d="M39.4641 63.0433C38.5147 63.0433 38.8541 60.481 38.8541 60.481C39.2608 59.3829 39.3352 57.952 39.8302 56.5767C40.7651 53.9792 41.4163 52.5504 42.5143 50.5983C43.6124 48.6462 44.8223 47.1471 46.6627 45.4739C49.3469 43.0337 48.8589 43.3997 52.5192 41.3255C54.6692 40.1072 58.1316 39.0074 58.1316 39.0074C58.1316 39.0074 60.2106 38.3973 60.3278 39.0074C60.5718 40.2772 59.4737 40.5935 59.4737 40.5935C59.4737 40.5935 58.8398 40.8683 58.1316 41.0816C54.744 42.1017 52.8359 42.9298 49.9569 44.9859C47.4069 46.807 46.0418 48.047 44.2225 50.5983C41.7515 54.0634 40.6842 57.1868 40.1962 61.0911C40.0589 62.1892 40.4135 63.0433 39.4641 63.0433Z" fill="#006158"/>
  <path d="M35.2843 55.7669C36.0505 51.9845 39.4641 46.938 39.4641 46.938C39.4641 46.938 35.2112 52.155 34.0041 55.7669C33.1327 58.3747 32.6893 61.0311 32.518 63.7753C32.3128 67.0606 32.3002 65.2064 32.518 69.2657C32.6473 71.6778 33.2595 74.5439 33.7475 75.8543C34.677 78.3504 36.5645 81.3702 36.5645 81.3702C36.5645 81.3702 38.6228 83.2241 39.1248 82.6504C39.5641 82.1484 39.1248 81.3702 39.1248 81.3702C39.1248 81.3702 36.5645 77.5297 35.2843 73.6892C34.2888 70.7028 33.9535 66.5955 34.0041 63.4479C34.0541 60.342 34.6676 58.8113 35.2843 55.7669Z" fill="#006158"/>
  <path d="M31.4115 84.8829L37.268 93.0576C37.268 93.0576 30.9601 86.424 27.9952 81.3447C26.5672 78.8982 26.102 77.4588 25.2492 74.8204L25.189 74.6342C23.966 70.8518 23.6029 68.0457 23.6029 61.8231C23.6029 58.2901 24.1111 56.0737 25.067 52.6725C25.8787 49.7841 28.1173 45.4739 28.1173 45.4739C28.1173 45.4739 28.8448 45.0867 29.5814 45.4739C30.41 45.9095 30.5574 46.938 30.5574 46.938C30.5574 46.938 27.6111 53.157 26.7751 57.1868C26.1722 60.0929 26.0478 61.7835 26.043 64.7514C26.0368 68.6402 26.2751 70.873 27.2631 74.6342C28.3425 78.7429 29.2951 81.1996 31.4115 84.8829Z" fill="#006158"/>
  <path d="M21.6507 88.7873C20.7559 89.5245 18.7225 88.2993 18.7225 88.2993C18.7225 88.2993 14.0343 78.5604 13.11 71.828C12.5655 67.8616 12.515 65.5673 12.866 61.5792C13.3838 55.6965 14.4827 52.4321 16.6483 46.938C18.4379 42.3979 19.6646 39.8882 22.3827 35.8352C24.6086 32.5163 28.3613 27.9045 28.8493 27.9045C29.4903 27.9046 30.0693 28.3616 30.0693 29.0026C30.0693 29.3686 25.9273 33.3573 23.8469 36.5672C20.8761 41.1508 19.703 44.1173 18.2344 49.3782C17.3349 52.6006 17.0558 54.4763 16.6483 57.7969L16.6351 57.9041C16.2015 61.4372 15.9501 63.4857 16.1603 67.0696C16.3638 70.5416 16.6943 72.503 17.6244 75.8543C18.8173 80.1527 22.1387 86.3471 22.1387 86.3471C22.1387 86.3471 22.4008 88.1694 21.6507 88.7873Z" fill="#006158"/>
  <path d="M7.7416 45.2299C8.66964 45.7126 9.08371 47.5481 9.08371 47.5481C9.08371 47.5481 8.11256 51.1739 7.61959 53.5265C6.85808 57.1608 6.52126 59.627 6.52126 63.7753C6.52126 68.3695 6.43631 70.1132 7.25356 74.6342C8.11514 79.4004 8.81284 82.0691 10.5478 86.5911C12.105 90.6498 13.0918 92.93 15.4282 96.5959C18.4058 101.268 20.9507 103.255 24.7009 107.333C26.298 109.069 29.1374 111.359 28.8493 111.725C28.4484 112.234 28.0795 112.397 27.5071 112.701C26.9348 113.005 22.0715 108.715 19.0885 105.625C16.2613 102.696 14.8648 100.847 12.622 97.45C10.4953 94.229 9.50165 92.2822 7.86361 88.7873C6.06483 84.9494 5.15771 82.7261 3.9593 78.6605C2.7756 74.6448 2.65228 73.433 2.25113 69.2657C1.5819 62.3138 2.38287 58.0499 3.10513 53.2825C3.71514 49.2562 5.05739 45.4739 5.05739 45.4739C5.05739 45.4739 6.8078 44.7442 7.7416 45.2299Z" fill="#006158"/>
  <path d="M49.3661 76.2495C48.9922 76.8339 48.086 74.9694 48.086 74.9694C48.086 74.9694 47.2306 73.2375 46.8058 72.409C46.6247 72.0558 45.5256 69.8047 45.5256 67.2884V63.4479V62.1677C45.5256 61.2868 48.1268 53.2825 48.1268 53.2825C48.1268 53.2825 46.903 61.5988 46.8058 62.1677C46.7086 62.7366 46.4469 66.1151 46.8058 68.5686C46.9712 69.6993 47.2773 70.7918 48.086 72.409L49.3661 74.9694C49.3661 74.9694 49.9335 75.3628 49.3661 76.2495Z" stroke="#006158" stroke-width="2.5"/>
  <path d="M39.4641 63.0433C38.5147 63.0433 38.8541 60.481 38.8541 60.481C39.2608 59.3829 39.3352 57.952 39.8302 56.5767C40.7651 53.9792 41.4163 52.5504 42.5143 50.5983C43.6124 48.6462 44.8223 47.1471 46.6627 45.4739C49.3469 43.0337 48.8589 43.3997 52.5192 41.3255C54.6692 40.1072 58.1316 39.0074 58.1316 39.0074C58.1316 39.0074 60.2106 38.3973 60.3278 39.0074C60.5718 40.2772 59.4737 40.5935 59.4737 40.5935C59.4737 40.5935 58.8398 40.8683 58.1316 41.0816C54.744 42.1017 52.8359 42.9298 49.9569 44.9859C47.4069 46.807 46.0418 48.047 44.2225 50.5983C41.7515 54.0634 40.6842 57.1868 40.1962 61.0911C40.0589 62.1892 40.4135 63.0433 39.4641 63.0433Z" stroke="#006158" stroke-width="2.5"/>
  <path d="M35.2843 55.7669C36.0505 51.9845 39.4641 46.938 39.4641 46.938C39.4641 46.938 35.2112 52.155 34.0041 55.7669C33.1327 58.3747 32.6893 61.0311 32.518 63.7753C32.3128 67.0606 32.3002 65.2064 32.518 69.2657C32.6473 71.6778 33.2595 74.5439 33.7475 75.8543C34.677 78.3504 36.5645 81.3702 36.5645 81.3702C36.5645 81.3702 38.6228 83.2241 39.1248 82.6504C39.5641 82.1484 39.1248 81.3702 39.1248 81.3702C39.1248 81.3702 36.5645 77.5297 35.2843 73.6892C34.2888 70.7028 33.9535 66.5955 34.0041 63.4479C34.0541 60.342 34.6676 58.8113 35.2843 55.7669Z" stroke="#006158" stroke-width="2.5"/>
  <path d="M31.4115 84.8829L37.268 93.0576C37.268 93.0576 30.9601 86.424 27.9952 81.3447C26.5672 78.8982 26.102 77.4588 25.2492 74.8204L25.189 74.6342C23.966 70.8518 23.6029 68.0457 23.6029 61.8231C23.6029 58.2901 24.1111 56.0737 25.067 52.6725C25.8787 49.7841 28.1173 45.4739 28.1173 45.4739C28.1173 45.4739 28.8448 45.0867 29.5814 45.4739C30.41 45.9095 30.5574 46.938 30.5574 46.938C30.5574 46.938 27.6111 53.157 26.7751 57.1868C26.1722 60.0929 26.0478 61.7835 26.043 64.7514C26.0368 68.6402 26.2751 70.873 27.2631 74.6342C28.3425 78.7429 29.2951 81.1996 31.4115 84.8829Z" stroke="#006158" stroke-width="2.5"/>
  <path d="M21.6507 88.7873C20.7559 89.5245 18.7225 88.2993 18.7225 88.2993C18.7225 88.2993 14.0343 78.5604 13.11 71.828C12.5655 67.8616 12.515 65.5673 12.866 61.5792C13.3838 55.6965 14.4827 52.4321 16.6483 46.938C18.4379 42.3979 19.6646 39.8882 22.3827 35.8352C24.6086 32.5163 28.3613 27.9045 28.8493 27.9045C29.4903 27.9046 30.0693 28.3616 30.0693 29.0026C30.0693 29.3686 25.9273 33.3573 23.8469 36.5672C20.8761 41.1508 19.703 44.1173 18.2344 49.3782C17.3349 52.6006 17.0558 54.4763 16.6483 57.7969L16.6351 57.9041C16.2015 61.4372 15.9501 63.4857 16.1603 67.0696C16.3638 70.5416 16.6943 72.503 17.6244 75.8543C18.8173 80.1527 22.1387 86.3471 22.1387 86.3471C22.1387 86.3471 22.4008 88.1694 21.6507 88.7873Z" stroke="#006158" stroke-width="2.5"/>
  <path d="M7.7416 45.2299C8.66964 45.7126 9.08371 47.5481 9.08371 47.5481C9.08371 47.5481 8.11256 51.1739 7.61959 53.5265C6.85808 57.1608 6.52126 59.627 6.52126 63.7753C6.52126 68.3695 6.43631 70.1132 7.25356 74.6342C8.11514 79.4004 8.81284 82.0691 10.5478 86.5911C12.105 90.6498 13.0918 92.93 15.4282 96.5959C18.4058 101.268 20.9507 103.255 24.7009 107.333C26.298 109.069 29.1374 111.359 28.8493 111.725C28.4484 112.234 28.0795 112.397 27.5071 112.701C26.9348 113.005 22.0715 108.715 19.0885 105.625C16.2613 102.696 14.8648 100.847 12.622 97.45C10.4953 94.229 9.50165 92.2822 7.86361 88.7873C6.06483 84.9494 5.15771 82.7261 3.9593 78.6605C2.7756 74.6448 2.65228 73.433 2.25113 69.2657C1.5819 62.3138 2.38287 58.0499 3.10513 53.2825C3.71514 49.2562 5.05739 45.4739 5.05739 45.4739C5.05739 45.4739 6.8078 44.7442 7.7416 45.2299Z" stroke="#006158" stroke-width="2.5"/>
  <path d="M78.7489 79.3922C78.3368 79.0684 77.4068 79.3922 77.4068 79.3922C77.4068 79.3922 74.1364 82.1812 71.6723 83.1746C69.1503 84.1914 67.8025 84.3379 65.0838 84.3946C62.9743 84.4387 61.4091 84.2423 59.3494 83.7846C57.084 83.2813 53.859 81.8324 53.859 81.8324C53.859 81.8324 57.2472 84.1358 59.7154 84.8827C62.0573 85.5913 63.4919 85.676 65.9379 85.6147C68.6007 85.5481 70.1339 85.2733 72.6484 84.3946C75.2044 83.5014 78.7489 81.1004 78.7489 81.1004C78.7489 81.1004 79.2734 79.8044 78.7489 79.3922Z" fill="#059D02"/>
  <path d="M68.6221 89.8851C68.4629 89.2426 69.2322 88.787 69.2322 88.787C69.2322 88.787 73.6893 87.8312 76.1867 86.5908C78.4836 85.45 79.5263 84.7434 81.5551 83.1746C82.5735 82.3871 83.8733 80.8564 83.8733 80.8564V83.0526L78.883 86.7495C78.5509 86.9956 78.1903 87.1992 77.8079 87.3563C76.9206 87.7211 75.1653 88.4427 73.6875 89.0512C71.2354 90.0608 69.847 90.3314 69.847 90.3314C69.847 90.3314 68.7913 90.568 68.6221 89.8851Z" fill="#059D02"/>
  <path d="M83.8733 90.7392V87.6889C83.8733 87.6889 80.924 90.2919 77.6508 91.5932C73.4566 93.2607 70.8153 94.2606 66.3039 94.3995C62.1806 94.5263 58.2788 94.4279 54.347 93.1793C50.5884 91.9858 45.0743 88.177 45.0743 88.177C45.0743 88.177 47.7744 90.9767 49.7106 92.2033C52.0528 93.6871 53.254 94.2957 55.9331 95.0095C59.1123 95.8566 61.4318 96.0644 64.7178 96.2296C67.4341 96.3661 68.9865 96.2915 71.6723 95.8635C74.5034 95.4124 75.7539 95.0546 78.3829 93.9114C80.5562 92.9663 83.8733 90.7392 83.8733 90.7392Z" fill="#059D02"/>
  <path d="M83.8733 99.4019V97.2057C83.8733 97.2057 80.2809 99.3386 76.7967 100.5C73.1365 101.72 68.9349 102.208 64.9618 102.208C60.9887 102.208 57.4141 101.541 53.6149 100.378C50.4567 99.4114 46.7824 97.9377 46.7824 97.9377C46.7824 97.9377 46.3455 97.434 45.4403 98.7918C44.9523 99.5239 45.4403 100.378 45.4403 100.378C45.4403 100.378 49.9031 102.332 53.1269 103.306C57.0758 104.5 59.3724 104.526 63.4977 104.526C66.67 104.526 71.938 103.71 74.7226 103.062C79.969 101.842 83.8733 99.4019 83.8733 99.4019Z" fill="#059D02"/>
  <path d="M83.8733 111.969V107.699C83.8733 107.699 79.4005 110.186 74.2346 110.993C70.2318 111.618 63.9858 112.091 59.8374 111.847C55.6891 111.603 52.8704 111.289 48.1245 109.773C42.7455 108.054 35.5575 103.306 35.5575 103.306C35.5575 103.306 30.6772 99.1578 30.3112 98.7918C30.3112 98.7918 29.8035 97.7132 28.847 98.6698C28.237 99.2799 28.6031 100.134 28.6031 100.134C28.6031 100.134 30.9317 102.698 32.0193 103.55C36.5336 107.088 37.7537 107.99 43.0001 110.505C47.9461 112.875 51.6371 113.783 57.0312 114.775C62.8906 115.853 68.3164 115.46 74.2346 114.775C79.0452 114.218 83.8733 111.969 83.8733 111.969Z" fill="#059D02"/>
  <path d="M83.8733 122.584V118.923C83.8733 118.923 80.6405 120.275 76.9188 120.876C73.9963 121.347 70.1177 121.916 67.158 121.974C61.4762 122.084 55.5671 121.242 53.249 120.754C50.9308 120.265 47.8805 119.045 47.8805 119.045C47.8805 119.045 46.6605 118.801 45.8064 120.265C44.7067 122.151 46.1724 123.682 46.1724 123.682C46.1724 123.682 47.2705 124.048 49.7107 124.658C52.1509 125.268 57.2753 125.634 57.2753 125.634C57.2753 125.634 62.6437 126 65.4499 126C68.2561 126 72.153 125.452 76.9188 124.658C79.847 124.17 83.8733 122.584 83.8733 122.584Z" fill="#059D02"/>
  <path d="M63.7417 90.1291C63.7352 90.1291 63.7267 90.1286 63.7163 90.1278C61.4072 90.0089 59.185 90.2569 56.5432 89.6411C54.7233 89.2169 53.0049 88.299 51.6628 87.5669C50.3207 86.8349 48.1957 85.4278 46.2944 83.5406C44.224 81.4857 43.5261 80.6728 42.024 78.1722C40.8056 76.1439 39.5838 72.653 39.5838 72.653C39.5838 72.653 39.0152 71.1359 39.5838 70.8516C40.8039 70.2415 41.17 71.2176 41.17 71.2176C41.17 71.2176 41.6306 72.9458 42.146 74.0239C43.5383 76.9359 44.1993 78.4162 45.8063 80.3684C47.7782 82.7637 49.8326 84.8828 52.8829 86.7129C55.8821 88.5124 63.1046 90.076 63.7163 90.1278C63.7248 90.1282 63.7333 90.1286 63.7417 90.1291Z" fill="#059D02"/>
  <path d="M77.4068 79.3922C77.4068 79.3922 78.3368 79.0684 78.7489 79.3922C79.2734 79.8044 78.7489 81.1004 78.7489 81.1004C78.7489 81.1004 75.2044 83.5014 72.6484 84.3946C70.1339 85.2733 68.6006 85.5481 65.9379 85.6147C63.4919 85.676 62.0573 85.5913 59.7154 84.8827C57.2472 84.1358 53.859 81.8324 53.859 81.8324C53.859 81.8324 57.084 83.2813 59.3494 83.7846C61.4091 84.2423 62.9743 84.4387 65.0838 84.3946C67.8025 84.3379 69.1503 84.1914 71.6723 83.1746C74.1364 82.1812 77.4068 79.3922 77.4068 79.3922ZM69.2322 88.787C69.2322 88.787 68.4629 89.2426 68.6221 89.8851C68.7913 90.568 69.847 90.3314 69.847 90.3314C69.847 90.3314 71.2354 90.0608 73.6875 89.0512C75.1653 88.4427 76.9206 87.7211 77.8079 87.3563C78.1903 87.1992 78.5509 86.9956 78.883 86.7495L83.8733 83.0526V80.8564C83.8733 80.8564 82.5735 82.3871 81.5551 83.1746C79.5263 84.7434 78.4836 85.45 76.1867 86.5908C73.6893 87.8312 69.2322 88.787 69.2322 88.787ZM83.8733 87.6889V90.7392C83.8733 90.7392 80.5562 92.9663 78.3829 93.9114C75.7539 95.0546 74.5034 95.4124 71.6723 95.8635C68.9866 96.2915 67.4341 96.3661 64.7178 96.2296C61.4318 96.0644 59.1123 95.8566 55.9331 95.0095C53.254 94.2957 52.0528 93.6871 49.7106 92.2033C47.7744 90.9767 45.0743 88.177 45.0743 88.177C45.0743 88.177 50.5884 91.9858 54.347 93.1793C58.2788 94.4279 62.1806 94.5263 66.3039 94.3995C70.8153 94.2606 73.4566 93.2607 77.6508 91.5932C80.924 90.2919 83.8733 87.6889 83.8733 87.6889ZM83.8733 97.2057V99.4019C83.8733 99.4019 79.969 101.842 74.7226 103.062C71.938 103.71 66.67 104.526 63.4977 104.526C59.3724 104.526 57.0758 104.5 53.1269 103.306C49.9031 102.332 45.4403 100.378 45.4403 100.378C45.4403 100.378 44.9523 99.5239 45.4403 98.7918C46.3455 97.434 46.7824 97.9377 46.7824 97.9377C46.7824 97.9377 50.4567 99.4114 53.6149 100.378C57.4141 101.541 60.9887 102.208 64.9618 102.208C68.9349 102.208 73.1365 101.72 76.7967 100.5C80.2809 99.3386 83.8733 97.2057 83.8733 97.2057ZM83.8733 107.699V111.969C83.8733 111.969 79.0452 114.218 74.2346 114.775C68.3164 115.46 62.8906 115.853 57.0312 114.775C51.6371 113.783 47.9461 112.875 43.0001 110.505C37.7537 107.99 36.5336 107.088 32.0193 103.55C30.9317 102.698 28.6031 100.134 28.6031 100.134C28.6031 100.134 28.237 99.2799 28.847 98.6698C29.8035 97.7132 30.3112 98.7918 30.3112 98.7918C30.6772 99.1578 35.5575 103.306 35.5575 103.306C35.5575 103.306 42.7455 108.054 48.1245 109.773C52.8704 111.289 55.6891 111.603 59.8374 111.847C63.9858 112.091 70.2318 111.618 74.2346 110.993C79.4005 110.186 83.8733 107.699 83.8733 107.699ZM83.8733 118.923V122.584C83.8733 122.584 79.847 124.17 76.9188 124.658C72.153 125.452 68.2561 126 65.4499 126C62.6437 126 57.2753 125.634 57.2753 125.634C57.2753 125.634 52.1509 125.268 49.7107 124.658C47.2705 124.048 46.1724 123.682 46.1724 123.682C46.1724 123.682 44.7067 122.151 45.8064 120.265C46.6605 118.801 47.8805 119.045 47.8805 119.045C47.8805 119.045 50.9308 120.265 53.249 120.754C55.5671 121.242 61.4762 122.084 67.158 121.974C70.1177 121.916 73.9963 121.347 76.9188 120.876C80.6405 120.275 83.8733 118.923 83.8733 118.923ZM63.7417 90.1291C63.3513 90.1291 55.9331 88.543 52.8829 86.7129C49.8326 84.8828 47.7782 82.7637 45.8063 80.3684C44.1993 78.4162 43.5383 76.9359 42.146 74.0239C41.6306 72.9458 41.17 71.2176 41.17 71.2176C41.17 71.2176 40.8039 70.2415 39.5838 70.8516C39.0152 71.1359 39.5838 72.653 39.5838 72.653C39.5838 72.653 40.8056 76.1439 42.024 78.1722C43.5261 80.6728 44.224 81.4857 46.2944 83.5406C48.1957 85.4278 50.3207 86.8349 51.6628 87.5669C53.0049 88.299 54.7233 89.2169 56.5432 89.6411C59.1947 90.2592 61.4235 90.0071 63.7417 90.1291Z" stroke="#059D02" stroke-width="2.5"/>
</svg>
