<svg width="27" height="30" viewBox="0 0 27 30" fill="none" xmlns="http://www.w3.org/2000/svg">
<path d="M26.4525 0L24.0427 26.9969L13.2101 30L2.40739 27.0011L0 0H26.4525Z" fill="#E44D26"/>
<path d="M13.2266 27.7045L21.9798 25.2778L24.0391 2.2077H13.2266V27.7045Z" fill="#F16529"/>
<path d="M8.54197 8.83092H13.2267V5.51935H4.92285L5.00207 6.40777L5.81604 15.5336H13.2267V12.222H8.84464L8.54197 8.83092ZM9.28833 17.1894H5.96401L6.42792 22.3891L13.2115 24.2721L13.2267 24.268V20.8225L13.2122 20.8264L9.52413 19.8305L9.28833 17.1894Z" fill="#EBEBEB"/>
<path d="M13.2149 15.5336H17.2928L16.9083 19.8285L13.2148 20.8253V24.2706L20.0038 22.3891L20.0536 21.8296L20.8319 13.1113L20.9126 12.222H13.2149V15.5336ZM13.2149 8.82283V8.83092H21.214L21.2803 8.08663L21.4313 6.40777L21.5104 5.51935H13.2149V8.82283Z" fill="white"/>
</svg>
