<svg width="31" height="30" viewBox="0 0 31 30" fill="none" xmlns="http://www.w3.org/2000/svg">
<path fill-rule="evenodd" clip-rule="evenodd" d="M15.3906 0C18.3573 0 21.2574 0.879735 23.7242 2.52796C26.1909 4.17618 28.1135 6.51886 29.2488 9.25975C30.3841 12.0006 30.6812 15.0166 30.1024 17.9263C29.5236 20.8361 28.095 23.5088 25.9972 25.6066C23.8994 27.7044 21.2267 29.133 18.317 29.7118C15.4073 30.2905 12.3913 29.9935 9.65037 28.8582C6.90948 27.7229 4.5668 25.8003 2.91858 23.3335C1.27036 20.8668 0.390625 17.9667 0.390625 15C0.390625 11.0217 1.97098 7.20644 4.78402 4.3934C7.59707 1.58035 11.4124 0 15.3906 0Z" fill="#83CD29"/>
<path d="M15.3907 30C14.9859 30.0002 14.5883 29.8937 14.2378 29.6914L10.5692 27.5196C10.0217 27.2132 10.2885 27.105 10.4696 27.0418C11.0519 26.8619 11.6094 26.6099 12.1292 26.2918C12.1727 26.2717 12.2207 26.263 12.2685 26.2665C12.3163 26.2701 12.3624 26.2858 12.4024 26.3122L15.2214 27.9868C15.2739 28.0146 15.3323 28.0291 15.3917 28.0291C15.4511 28.0291 15.5096 28.0146 15.5621 27.9868L26.5549 21.6418C26.6064 21.611 26.6489 21.5673 26.6784 21.5151C26.7079 21.4629 26.7233 21.4039 26.7232 21.3439V8.65179C26.7232 8.59088 26.7075 8.53098 26.6777 8.47787C26.6479 8.42476 26.6048 8.38023 26.5528 8.34858L15.5599 2.00894C15.5081 1.97974 15.4496 1.96441 15.3901 1.96441C15.3306 1.96441 15.2721 1.97974 15.2203 2.00894L4.23387 8.35072C4.18147 8.38172 4.13796 8.42572 4.10755 8.47846C4.07714 8.53121 4.06086 8.59091 4.0603 8.65179V21.3386C4.06045 21.3984 4.07651 21.4571 4.10682 21.5087C4.13713 21.5603 4.18061 21.6029 4.2328 21.6322L7.2478 23.3721C8.88173 24.1886 9.88245 23.2264 9.88245 22.26V9.73394C9.88245 9.64869 9.91631 9.56693 9.97659 9.50665C10.0369 9.44637 10.1186 9.41251 10.2039 9.41251H11.5967C11.682 9.41251 11.7637 9.44637 11.824 9.50665C11.8843 9.56693 11.9182 9.64869 11.9182 9.73394V22.2611C11.9182 24.4414 10.731 25.6896 8.66316 25.6896C7.77106 25.7052 6.89296 25.4666 6.13137 25.0018L3.24173 23.3443C2.89093 23.14 2.59986 22.8473 2.39756 22.4953C2.19527 22.1434 2.08883 21.7445 2.08887 21.3386V8.65179C2.08783 8.24522 2.19382 7.84553 2.39619 7.49289C2.59855 7.14026 2.89017 6.84709 3.24173 6.64287L14.2357 0.295725C14.5898 0.101976 14.987 0.000427246 15.3907 0.000427246C15.7943 0.000427246 16.1915 0.101976 16.5457 0.295725L27.5385 6.64287C27.8893 6.84675 28.1804 7.13907 28.3829 7.49063C28.5854 7.8422 28.6921 8.24073 28.6924 8.64644V21.3386C28.6918 21.7445 28.585 22.1432 28.3826 22.4951C28.1801 22.847 27.8891 23.1397 27.5385 23.3443L16.5457 29.6914C16.1945 29.894 15.7961 30.0005 15.3907 30ZM19.1278 21.1532C22.611 21.1532 24.6082 19.7818 24.6082 17.3861C24.6082 15.0118 23.001 14.3786 19.6249 13.9329C16.2114 13.4807 15.8642 13.2482 15.8642 12.4489C15.8642 11.7889 16.1578 10.9082 18.6864 10.9082C20.9449 10.9082 21.7774 11.3947 22.1149 12.9172C22.1312 12.9871 22.1704 13.0496 22.2264 13.0946C22.2823 13.1397 22.3517 13.1647 22.4235 13.1657H23.8549C23.8989 13.1651 23.9422 13.1555 23.9822 13.1375C24.0223 13.1195 24.0583 13.0935 24.0879 13.0611C24.1175 13.0287 24.1401 12.9905 24.1544 12.949C24.1687 12.9075 24.1744 12.8634 24.171 12.8197C23.9503 10.1968 22.2082 8.9743 18.6853 8.9743C15.5514 8.9743 13.6817 10.2975 13.6817 12.5154C13.6817 14.9218 15.5417 15.5861 18.5503 15.8839C22.1492 16.2364 22.4289 16.7625 22.4289 17.4707C22.4289 18.6997 21.4432 19.2236 19.1267 19.2236C16.2178 19.2236 15.5771 18.4929 15.3628 17.0464C15.3504 16.9715 15.3118 16.9034 15.254 16.8541C15.1961 16.8049 15.1227 16.7778 15.0467 16.7775H13.6239C13.5386 16.7775 13.4569 16.8114 13.3966 16.8717C13.3363 16.9319 13.3024 17.0137 13.3024 17.0989C13.3057 18.945 14.3139 21.1532 19.1246 21.1532H19.1278Z" fill="white"/>
</svg>
