<svg width="23" height="30" viewBox="0 0 23 30" fill="none" xmlns="http://www.w3.org/2000/svg">
<path d="M11.4058 7.91308C17.5821 3.11819 14.4123 0 14.4123 0C14.884 4.95692 9.30889 6.12734 7.81442 9.53362C6.7947 11.858 8.51277 13.8931 11.4037 16.4582C11.1482 15.8901 10.754 15.3381 10.355 14.7792C8.9938 12.8731 7.57592 10.8874 11.4058 7.91308Z" fill="#E76F00"/>
<path d="M12.3918 17.5097C12.3918 17.5097 14.2499 16.0105 12.7784 14.3445C7.79018 8.69235 18.2341 6.12732 18.2341 6.12732C11.8576 9.1992 12.8096 11.0225 14.4123 13.2377C16.1283 15.6129 12.3918 17.5097 12.3918 17.5097Z" fill="#E76F00"/>
<path d="M17.8631 21.9803C23.5868 19.0555 20.9404 16.2448 19.0933 16.6235C18.6405 16.7161 18.4386 16.7965 18.4386 16.7965C18.4386 16.7965 18.6067 16.5375 18.9277 16.4254C22.582 15.1621 25.3923 20.1515 17.748 22.1276C17.748 22.1276 17.8366 22.0498 17.8631 21.9803Z" fill="#5382A1"/>
<path d="M5.953 18.2783C2.37186 17.8081 7.91659 16.513 7.91659 16.513C7.91659 16.513 5.76334 16.3702 3.11511 17.629C-0.0162778 19.1186 10.8609 19.796 16.4914 18.3398C17.0768 17.9467 17.8859 17.606 17.8859 17.606C17.8859 17.606 15.5818 18.0107 13.2872 18.2011C10.4794 18.4323 7.46509 18.4774 5.953 18.2783Z" fill="#5382A1"/>
<path d="M7.31478 21.071C5.31776 20.868 6.62535 19.9161 6.62535 19.9161C1.45783 21.6027 9.50047 23.5153 16.7212 21.4389C15.9537 21.1729 15.4656 20.6862 15.4656 20.6862C11.9366 21.3545 9.89722 21.3331 7.31478 21.071Z" fill="#5382A1"/>
<path d="M8.18585 24.0929C6.19038 23.8673 7.35616 23.2007 7.35616 23.2007C2.66532 24.4896 10.2093 27.1523 16.1816 24.6353C15.2034 24.2613 14.503 23.8295 14.503 23.8295C11.8389 24.3252 10.6033 24.3641 8.18585 24.0929Z" fill="#5382A1"/>
<path d="M20.6769 25.6301C20.6769 25.6301 21.5396 26.3291 19.7267 26.8699C16.2795 27.8968 5.379 28.207 2.35088 26.9109C1.26235 26.4452 3.30365 25.799 3.94577 25.6633C4.61543 25.5206 4.99812 25.5472 4.99812 25.5472C3.78756 24.7086 -2.82642 27.1938 1.63854 27.9056C13.8152 29.8474 23.8353 27.0311 20.6769 25.6301Z" fill="#5382A1"/>
<path d="M22.6095 27.1574C22.4098 29.7138 13.973 30.2515 8.47897 29.9057C4.89484 29.6797 4.17653 29.1148 4.16602 29.1066C7.59632 29.6627 13.3798 29.7639 18.069 28.8961C22.2254 28.1265 22.6095 27.1574 22.6095 27.1574Z" fill="#5382A1"/>
</svg>
