<svg width="24" height="24" viewBox="0 0 24 24" fill="none" xmlns="http://www.w3.org/2000/svg">
<path d="M24 2.8509C23.1174 3.31954 22.157 3.65682 21.1676 3.78818C22.1948 3.03706 22.9639 1.85043 23.3308 0.450902C22.367 1.15666 21.3111 1.65155 20.2101 1.91362C19.7499 1.30804 19.1933 0.825599 18.575 0.496372C17.9567 0.167145 17.2899 -0.00181698 16.6163 1.47351e-05C13.8906 1.47351e-05 11.6986 2.71954 11.6986 6.05682C11.6986 6.52545 11.7447 6.99409 11.8197 7.44498C7.73849 7.18226 4.09855 4.78226 1.67864 1.10771C1.23771 2.03474 1.00665 3.09028 1.00949 4.16451C1.00949 6.26628 1.87766 8.11954 3.20154 9.20948C2.42136 9.17166 1.65944 8.9077 0.977767 8.43906V8.51362C0.977767 11.4568 2.66795 13.8959 4.92056 14.4568C4.49761 14.592 4.06251 14.6612 3.62553 14.6627C3.30537 14.6627 3.00252 14.6237 2.69679 14.5704C3.31979 16.9704 5.134 18.7136 7.29432 18.7704C5.60413 20.4 3.48708 21.3586 1.18832 21.3586C0.775868 21.3586 0.395145 21.3408 0 21.284C2.18051 23.0059 4.7677 24 7.5539 24C16.599 24 21.5484 14.7763 21.5484 6.77043C21.5484 6.5077 21.5484 6.24498 21.5339 5.98226C22.4915 5.11954 23.3308 4.0509 24 2.8509Z" fill="black"/>
</svg>
