<svg width="20" height="30" viewBox="0 0 20 30" fill="none" xmlns="http://www.w3.org/2000/svg">
<path fill-rule="evenodd" clip-rule="evenodd" d="M10 15C10 12.2386 12.2386 10 15 10C17.7614 10 20 12.2386 20 15C20 17.7614 17.7614 20 15 20C12.2386 20 10 17.7614 10 15Z" fill="#1ABCFE"/>
<path fill-rule="evenodd" clip-rule="evenodd" d="M0 25C0 22.2386 2.23857 20 5 20H10V25C10 27.7614 7.76138 30 5 30C2.23857 30 0 27.7614 0 25Z" fill="#0ACF83"/>
<path fill-rule="evenodd" clip-rule="evenodd" d="M10 0V10H15C17.7614 10 20 7.76138 20 5C20 2.23857 17.7614 0 15 0H10Z" fill="#FF7262"/>
<path fill-rule="evenodd" clip-rule="evenodd" d="M0 5C0 7.76138 2.23857 10 5 10H10V0H5C2.23857 0 0 2.23857 0 5Z" fill="#F24E1E"/>
<path fill-rule="evenodd" clip-rule="evenodd" d="M0 15C0 17.7614 2.23857 20 5 20H10V10H5C2.23857 10 0 12.2386 0 15Z" fill="#A259FF"/>
</svg>
