<svg width="800" height="800" viewBox="0 0 800 800" fill="none" xmlns="http://www.w3.org/2000/svg">
<path d="M675 150H125C83.5788 150 50 183.579 50 225V575C50 616.423 83.5788 650 125 650H675C716.423 650 750 616.423 750 575V225C750 183.579 716.423 150 675 150Z" fill="#388E3C"/>
<path d="M400 150V650H125C105.109 650 86.0322 642.097 71.967 628.032C57.9018 613.967 50 594.89 50 575V225C50 205.109 57.9018 186.032 71.967 171.967C86.0322 157.902 105.109 150 125 150H400Z" fill="#66BB6A"/>
<path d="M300 150V500C300 506.63 297.365 512.99 292.677 517.677C287.99 522.365 281.63 525 275 525C268.37 525 262.01 522.365 257.323 517.677C252.635 512.99 250 506.63 250 500V150H300Z" fill="#F5F5F5"/>
<path d="M625 325H500C493.37 325 487.01 322.365 482.323 317.677C477.635 312.99 475 306.63 475 300C475 293.37 477.635 287.01 482.323 282.323C487.01 277.635 493.37 275 500 275H625C631.63 275 637.99 277.635 642.677 282.323C647.365 287.01 650 293.37 650 300C650 306.63 647.365 312.99 642.677 317.677C637.99 322.365 631.63 325 625 325Z" fill="#E0E0E0"/>
<path d="M625 425H550C543.37 425 537.01 422.365 532.323 417.677C527.635 412.99 525 406.63 525 400C525 393.37 527.635 387.01 532.323 382.323C537.01 377.635 543.37 375 550 375H625C631.63 375 637.99 377.635 642.677 382.323C647.365 387.01 650 393.37 650 400C650 406.63 647.365 412.99 642.677 417.677C637.99 422.365 631.63 425 625 425Z" fill="#E0E0E0"/>
<path d="M625 525H500C493.37 525 487.01 522.365 482.323 517.677C477.635 512.99 475 506.63 475 500C475 493.37 477.635 487.01 482.323 482.323C487.01 477.635 493.37 475 500 475H625C631.63 475 637.99 477.635 642.677 482.323C647.365 487.01 650 493.37 650 500C650 506.63 647.365 512.99 642.677 517.677C637.99 522.365 631.63 525 625 525Z" fill="#E0E0E0"/>
</svg>
