<svg xmlns="http://www.w3.org/2000/svg" width="92" height="124" viewBox="0 0 92 124" fill="none">
  <path d="M55.3707 87.3278C52.3586 80.3871 47.1383 75.6062 41.6122 70.5456C35.06 64.5453 28.2848 58.341 25.0761 48.2056C23.9194 44.553 23.4031 40.6487 23.3533 36.7207C17.1458 49.6981 9.40595 68.1345 7.88762 82.1265C6.52492 94.6847 11.4781 107.692 21.7377 114.796C30.7554 121.04 45.9293 121.94 53.0948 112.262C53.6964 111.449 54.2416 110.563 54.7217 109.598C58.1171 102.778 58.4141 94.3397 55.3707 87.3278ZM45.6103 109.688C48.4571 99.3986 45.5449 87.6104 38.2826 80.0275C44.3293 81.1822 49.5258 86.2227 51.0563 92.4185C52.5872 98.6144 50.3714 105.64 45.6103 109.688Z" fill="#08BAE8"/>
  <path fill-rule="evenodd" clip-rule="evenodd" d="M33.0977 27.2747C34.16 25.6979 35.2304 23.1769 34.0327 21.1924C33.3549 19.9702 31.9741 16.7803 31.8735 13.7979C31.9102 13.3721 32.0655 12.4277 32.3932 12.0565C32.7209 11.6853 33.5249 10.9222 33.886 10.5871C34.2359 10.0635 34.9726 9.79284 35.1204 12.899C35.1486 13.8314 35.5022 16.3064 36.6905 18.7469C37.0516 19.6331 38.4186 21.495 40.9978 21.8532C48.3546 19.2845 57.4534 20.8739 63.7086 25.029C74.0958 31.9289 79.2852 44.8355 78.1518 57.4184C76.8889 71.4379 70.8006 90.3808 64.8308 103.479C63.629 106.116 63.1377 102.084 62.6239 97.8684C62.3305 95.4606 62.0297 92.9929 61.5851 91.6736C58.1923 81.6039 51.3057 75.535 44.6456 69.6656L44.6448 69.6649C39.0274 64.7146 33.7209 60.0379 30.5829 53.158C27.4122 46.2077 27.5553 37.7646 30.8256 30.8788C31.2881 29.905 31.8171 29.0076 32.4036 28.1836C32.6268 27.87 32.8583 27.5671 33.0977 27.2747ZM63.5265 47.8253C63.4815 47.7683 63.4475 47.7491 63.4135 47.7299C63.3955 47.6797 63.4067 47.6798 63.4067 47.6798C63.372 47.6705 63.3389 47.652 63.3058 47.6336C63.2877 47.585 63.3006 47.5848 63.3006 47.5848C63.2668 47.5761 63.2341 47.5567 63.2015 47.5373C63.1843 47.4878 63.1973 47.4877 63.1973 47.4877C63.163 47.4797 63.1297 47.4609 63.0964 47.4421L63.0963 47.4421C63.0785 47.3928 63.0911 47.3927 63.0911 47.3927C63.0591 47.3825 63.0282 47.3618 62.9973 47.3411C62.9811 47.2916 62.9895 47.2924 62.9895 47.2924C62.4548 46.935 61.9217 46.5707 61.3886 46.2065L61.3884 46.2064C61.3423 46.1545 61.308 46.1619 61.308 46.1619C61.282 46.1413 61.2434 46.1529 61.2434 46.1529C61.2607 46.2211 61.2764 46.2912 61.2922 46.3622C61.3533 46.6361 61.4171 46.9217 61.5909 47.1498C63.9107 50.1933 65.8673 53.3901 67.4971 56.7183C68.6237 59.0189 69.6779 61.3443 70.7002 63.6775C71.1109 64.6149 71.3977 65.5977 71.2783 66.6137C71.2126 67.1728 70.9767 67.6364 70.2579 67.8093C69.6454 67.9565 68.9872 67.781 68.5652 67.2261C68.0596 66.5612 67.5815 65.8688 67.2174 65.1456C65.6993 62.13 64.1157 59.1395 62.2296 56.2665C61.7312 55.5072 61.1255 54.794 60.5223 54.0836C60.4283 53.9728 60.3343 53.8622 60.2408 53.7514C60.0508 53.5264 59.7407 53.3483 59.4442 53.2134C59.0648 53.0407 58.7093 53.2584 58.8314 53.6014C58.9736 54.0009 59.1679 54.4113 59.4546 54.7502C61.3868 57.0335 62.7796 59.5476 64.174 62.0645C64.2271 62.1604 64.2803 62.2564 64.3334 62.3523C65.6491 64.7255 66.9552 67.1002 67.9474 69.5814C67.9595 69.6115 67.9719 69.6416 67.9844 69.6717C68.0192 69.7562 68.0541 69.8406 68.0809 69.9266C68.322 70.699 68.0994 71.1906 67.3513 71.547C66.5506 71.9285 65.8217 71.8785 65.2012 71.2688C64.7105 70.7865 64.2716 70.239 63.9578 69.6657C63.3314 68.521 62.7238 67.3691 62.1162 66.2172C61.1075 64.305 60.099 62.3931 59.0047 60.5148C58.1111 58.9812 57.033 57.5188 55.9567 56.0591C55.7032 55.7152 55.4498 55.3715 55.1989 55.027C54.9514 54.6872 54.5107 54.4296 54.0988 54.1889C54.0632 54.1681 54.0279 54.1475 53.9929 54.1269C53.877 54.0588 53.6971 54.0671 53.5172 54.0755C53.4353 54.0793 53.3533 54.0831 53.2774 54.0797C53.28 54.1414 53.2746 54.2068 53.2692 54.2721C53.2574 54.414 53.2457 54.556 53.3158 54.6605C53.5472 55.0057 53.7969 55.3427 54.0467 55.6796C54.3156 56.0424 54.5845 56.4052 54.8305 56.7783C55.7047 58.1042 56.5641 59.4369 57.4236 60.7695C57.7911 61.3394 58.1587 61.9093 58.5274 62.4787C58.777 62.8641 59.0282 63.2488 59.2795 63.6335C59.8138 64.4514 60.348 65.2693 60.866 66.0942L60.8674 66.0965C61.5171 67.1312 62.1686 68.1688 62.3796 69.3441C62.5039 70.0363 62.2795 70.5808 61.7457 70.8078C61.1781 71.0492 60.4541 70.9826 59.9352 70.4337C59.1718 69.6262 58.4458 68.7694 57.8891 67.8569C57.5061 67.2291 57.1319 66.5975 56.7578 65.9659C55.4904 63.8263 54.2233 61.6871 52.6134 59.7002C51.7307 58.6107 50.8068 57.544 49.883 56.4775C49.6299 56.1853 49.3768 55.8932 49.1246 55.6005C48.9781 55.4305 48.773 55.2889 48.5709 55.1607C48.4937 55.1117 48.3928 55.0888 48.2918 55.0659C48.2464 55.0556 48.2009 55.0453 48.1576 55.0326C48.1474 55.0722 48.1304 55.114 48.1135 55.1557C48.0767 55.2463 48.0399 55.3368 48.0721 55.4058C48.1147 55.4971 48.1562 55.5893 48.1977 55.6816C48.3735 56.0721 48.5508 56.4659 48.8184 56.8096C49.3831 57.5349 49.9661 58.2505 50.5492 58.9661C51.2089 59.7756 51.8686 60.5852 52.5016 61.4089C53.4575 62.6527 54.3133 63.9494 54.7878 65.385C54.8833 65.6738 54.9353 65.9779 54.9523 66.2764C54.974 66.6555 54.8506 67.0024 54.3962 67.1787C53.9308 67.3593 53.4353 67.347 53.0751 67.0403C52.5682 66.6086 52.0644 66.1509 51.6889 65.6393C51.2194 64.9997 50.7601 64.3549 50.3008 63.7101C48.8762 61.7103 47.452 59.7108 45.7256 57.8687C45.3912 57.512 45.0561 57.1557 44.721 56.7994C43.4311 55.4282 42.1412 54.0568 40.8958 52.6582C38.9634 50.4881 37.2275 48.2106 35.8836 45.7481C34.653 43.493 33.7773 41.1506 33.6245 38.6721C33.5014 36.6761 33.799 34.7104 34.3926 32.7871C34.6267 32.0287 34.9057 31.2805 35.1846 30.5323C35.3022 30.2169 35.4198 29.9015 35.5341 29.5853C35.5526 29.5341 35.5802 29.4852 35.6132 29.4268C35.6304 29.3965 35.649 29.3636 35.6686 29.3264C35.7981 29.7252 35.9214 30.1198 36.0435 30.5107C36.3063 31.3517 36.5639 32.1758 36.8667 32.9888C38.4378 37.2061 40.9236 40.9947 44.7493 44.1185C47.0651 46.0094 49.7272 47.4888 52.6879 48.5827C53.0007 48.6982 53.314 48.8126 53.6273 48.927C53.7721 48.9799 53.9169 49.0327 54.0616 49.0857L54.1766 48.9314C54.1312 48.9002 54.0872 48.867 54.0431 48.8337C53.9485 48.7624 53.8539 48.691 53.7458 48.6399C50.3589 47.0372 47.4516 44.9632 45.0266 42.4209C43.7106 41.0413 42.628 39.5433 41.8093 37.9188C41.7034 37.6852 41.6047 37.5166 41.506 37.348L41.506 37.3479C41.4789 37.2163 41.4401 37.1479 41.4012 37.0795C41.1612 36.3978 40.9239 35.7727 40.6865 35.1477C40.6929 35.0749 40.7012 35.077 40.7012 35.077C40.6398 34.8298 40.5762 34.5825 40.5126 34.3348C40.3437 33.6781 40.1743 33.019 40.0441 32.3552C39.9 31.6202 39.7879 30.8813 39.6758 30.1425C39.6271 29.8216 39.5784 29.5007 39.5271 29.1802C39.5365 29.0677 39.5299 29.0274 39.5234 28.9871C39.421 27.9363 39.308 26.9461 39.1879 25.8935L40.0166 26.6009C40.0432 26.6586 40.0334 26.6615 40.0334 26.6615C41.0827 27.182 42.1281 27.7106 43.1735 28.2391C43.3003 28.2847 43.3558 28.2994 43.4113 28.3142L43.4114 28.3142C45.1834 28.9381 46.9136 29.5262 48.6438 30.1143C48.6912 30.1691 48.721 30.1659 48.721 30.1659C49.2603 30.4044 49.7822 30.6222 50.3042 30.84C50.3557 30.8862 50.3556 30.8853 50.3556 30.8853C50.9324 31.1574 51.5105 31.4291 52.0886 31.7007C52.1317 31.7567 52.1591 31.7522 52.1591 31.7522C52.3265 31.8442 52.4789 31.9162 52.6313 31.9882C52.6637 32.0457 52.696 32.0405 52.696 32.0405C53.3316 32.3965 53.9465 32.7309 54.5615 33.0652C54.5982 33.1234 54.6247 33.1197 54.6247 33.1197C54.7148 33.1759 54.7924 33.212 54.8699 33.2481L54.8699 33.2481C54.8948 33.3021 54.8845 33.3049 54.8845 33.3049C55.0925 33.4028 55.2975 33.5092 55.5025 33.6157C55.5478 33.6612 55.5633 33.6618 55.5633 33.6618C56.1808 34.0254 56.7911 34.3776 57.4013 34.7298L57.4029 34.7307C57.4431 34.7834 57.4354 34.7872 57.4354 34.7872C57.7804 34.9897 58.1246 35.1997 58.4688 35.4097L58.4692 35.41C58.5108 35.4612 58.5032 35.465 58.5032 35.465C58.7825 35.661 59.0612 35.8645 59.3398 36.0679C59.367 36.1251 59.3544 36.1312 59.3544 36.1312C59.748 36.447 60.1333 36.7728 60.5185 37.0986L60.5191 37.0991C60.5477 37.155 60.5317 37.1654 60.5317 37.1654C60.5744 37.1693 60.6062 37.1876 60.638 37.2058L60.638 37.2058C60.657 37.2526 60.6333 37.2648 60.6333 37.2648C60.7487 37.3313 60.8439 37.4138 60.9391 37.4962C60.9553 37.5527 60.9462 37.554 60.9462 37.554C61.2264 37.812 61.5036 38.0772 61.7809 38.3424C61.801 38.4022 61.7902 38.403 61.7902 38.403C61.8243 38.4139 61.8578 38.4337 61.8914 38.4536C61.8993 38.5057 61.8914 38.5038 61.8914 38.5038C62.2077 38.8231 62.5209 39.1486 62.8341 39.4741C62.853 39.5346 62.8436 39.5364 62.8436 39.5364C62.8909 39.5637 62.9348 39.5985 62.9787 39.6333C62.9945 39.6841 63.0004 39.6889 63.0004 39.6889C63.3317 40.0624 63.6618 40.4291 63.992 40.7958L63.9924 40.7963C64.0023 40.8592 63.9943 40.8574 63.9943 40.8574C64.2056 41.0839 64.4133 41.3165 64.6209 41.5491C64.6428 41.5825 64.6597 41.6047 64.6728 41.622C64.6882 41.6422 64.6983 41.6555 64.7049 41.6717C64.7904 41.786 64.8633 41.8578 64.9363 41.9295C64.9415 41.9872 64.9331 41.987 64.9331 41.987C64.9774 42.0223 65.0172 42.0634 65.0571 42.1045L65.0571 42.1046C65.0732 42.1568 65.0603 42.1578 65.0603 42.1578C65.0914 42.1692 65.1205 42.1913 65.1497 42.2134C65.1626 42.263 65.1531 42.2626 65.1531 42.2626C65.2556 42.3642 65.3561 42.4736 65.4566 42.5829C65.4651 42.643 65.4558 42.644 65.4558 42.644C65.5304 42.7125 65.599 42.7871 65.6676 42.8616L65.6677 42.8617C65.6841 42.9171 65.6736 42.92 65.6736 42.92C65.8485 43.114 66.0183 43.316 66.1881 43.5181C66.1987 43.5803 66.1899 43.5804 66.1899 43.5804C66.2931 43.6839 66.3915 43.7936 66.4899 43.9033C66.5027 43.9615 66.4973 43.9623 66.4973 43.9623C66.5719 44.032 66.6436 44.1056 66.7152 44.1792L66.7153 44.1793C66.7223 44.2367 66.7133 44.2368 66.7133 44.2368C66.9244 44.4927 67.1304 44.7547 67.3365 45.0167C67.3469 45.0794 67.3374 45.0797 67.3374 45.0797C67.4133 45.1488 67.4828 45.2237 67.5523 45.2987L67.5523 45.2987C67.5636 45.3556 67.5543 45.3577 67.5543 45.3577C67.6253 45.4259 67.6932 45.5017 67.761 45.5774L67.7611 45.5775C67.7717 45.6351 67.7595 45.6418 67.7595 45.6418C67.9039 45.7997 68.0405 45.9679 68.1771 46.136C68.1884 46.1978 68.1773 46.2022 68.1773 46.2022C68.3206 46.3616 68.4575 46.5298 68.5943 46.698C68.6057 46.7595 68.5943 46.7637 68.5943 46.7637C68.7149 46.8888 68.8287 47.0227 68.9426 47.1565C68.981 47.2289 68.9926 47.2427 69.0042 47.2564C69.0817 47.3877 69.153 47.4691 69.2242 47.5504C69.2322 47.6023 69.2224 47.6053 69.2224 47.6053C69.4345 47.86 69.6425 48.1226 69.8505 48.3853C69.8503 48.4503 69.8408 48.4511 69.8408 48.4511C70.1224 48.7988 70.398 49.1526 70.6737 49.5065L70.6741 49.5069C70.6929 49.5683 70.6826 49.5707 70.6826 49.5707C70.7895 49.6728 70.8912 49.7827 70.9928 49.8926C71.0148 49.928 71.0317 49.95 71.0448 49.967C71.057 49.9829 71.0658 49.9944 71.072 50.0081C71.1386 50.1072 71.1873 50.1672 71.236 50.2273L71.2361 50.2274C71.253 50.2846 71.2213 50.2995 71.2213 50.2995C71.7975 50.7545 72.3397 51.2202 72.8818 51.6859L72.882 51.686C72.9082 51.7435 72.8953 51.7515 72.8953 51.7515C73.0397 51.8508 73.1752 51.9612 73.3107 52.0717C73.3257 52.1306 73.3165 52.1314 73.3165 52.1314C73.6331 52.4228 73.5117 52.6798 73.2235 52.915C72.5711 53.4475 71.7984 53.6535 70.8904 53.4605C69.3588 53.1351 68.1391 52.366 67.0373 51.4655C66.6075 51.1142 66.2217 50.7254 65.8359 50.3366C65.6621 50.1615 65.4883 49.9864 65.3106 49.8147C65.2923 49.754 65.3035 49.7498 65.3035 49.7498C64.9521 49.37 64.6072 48.9816 64.2624 48.5932L64.2621 48.5929C64.2419 48.5327 64.2506 48.532 64.2506 48.532C64.2162 48.5198 64.1832 48.5004 64.1501 48.4811L64.1501 48.481C64.142 48.4298 64.1501 48.4312 64.1501 48.4312C63.9723 48.2665 63.7982 48.0957 63.6241 47.925C63.5953 47.8927 63.5745 47.8737 63.5589 47.8593C63.5447 47.8462 63.5347 47.837 63.5265 47.8253Z" fill="#08E816"/>
</svg>
