<svg width="246" height="50" viewBox="0 0 246 50" fill="none" xmlns="http://www.w3.org/2000/svg">
<g id="Group 47">
<g id="Group">
<path id="Vector" fill-rule="evenodd" clip-rule="evenodd" d="M191.328 27.7375L195.715 14.3243L199.829 26.9163L200.103 27.7375C197.087 27.19 194.07 27.19 191.328 27.7375ZM200.377 8.30212H192.15C191.328 8.30212 190.779 8.8496 190.505 9.39708L178.713 40.0557H187.214L188.86 34.8547L189.408 33.486H189.682C193.522 32.1173 197.635 32.1173 201.748 33.486H202.023L202.297 34.0334L204.216 40.0557H212.443L200.377 8.30212Z" fill="#3D4144"/>
<path id="Vector_2" fill-rule="evenodd" clip-rule="evenodd" d="M167.471 24.7264C169.39 24.7264 170.762 24.1789 171.584 23.3577C172.407 22.5365 172.955 21.1678 172.955 19.2516C172.955 17.8829 172.407 16.5142 171.584 15.693C170.762 14.8718 169.39 14.3243 167.471 14.3243H158.97V24.7264H167.471ZM151.292 40.0557V10.2183C151.292 9.12334 152.114 8.30212 153.211 8.30212H167.471C170.213 8.30212 172.681 8.57586 174.601 9.39708C176.52 10.2183 178.166 11.3132 179.263 12.9557C180.36 14.5981 180.908 16.5142 180.908 18.9779V19.2516C180.908 21.7153 180.36 23.9052 179.263 25.5476C178.166 27.19 176.795 28.5587 174.875 29.3799C172.955 30.4749 170.487 30.7486 167.745 30.7486H158.97V40.0557H151.292Z" fill="#3D4144"/>
<path id="Vector_3" fill-rule="evenodd" clip-rule="evenodd" d="M130.998 8.30212H125.514C124.417 8.30212 123.594 9.12334 123.594 10.2183L123.868 24.4526C123.594 23.9052 123.046 23.3577 122.771 22.8102C117.835 16.5142 109.883 9.94455 105.769 8.30212H98.3652V40.3294H105.769V16.788C118.932 23.3577 124.143 39.7819 124.143 40.0557H130.998V8.30212Z" fill="#3D4144"/>
<path id="Vector_4" fill-rule="evenodd" clip-rule="evenodd" d="M137.305 40.0557V9.94454C137.305 8.84959 138.128 8.02838 139.225 8.02838H144.984V40.0557H137.305Z" fill="#3D4144"/>
<path id="Vector_5" fill-rule="evenodd" clip-rule="evenodd" d="M86.2994 8.30212C85.2025 8.30212 84.3798 9.12334 84.3798 10.2183V26.3688C84.3798 29.1062 83.8314 31.2961 82.4602 32.391C81.0891 33.7597 79.1695 34.3072 76.7015 34.3072C74.2334 34.3072 72.3139 33.7597 70.9427 32.391C69.5716 31.0223 69.0231 29.1062 69.0231 26.3688V10.2183C69.0231 9.12334 68.2005 8.30212 67.1036 8.30212H58.6025V12.4082C58.6025 13.5031 59.4252 14.3243 60.5221 14.3243H61.3448V26.3688C61.3448 29.6536 61.8933 32.391 62.9902 34.3072C64.0871 36.4971 65.7324 37.8658 67.9262 38.9607C70.12 40.0557 73.1365 40.6031 76.9757 40.6031C80.5407 40.6031 83.5571 40.0557 85.751 38.9607C87.9448 37.8658 89.5901 36.4971 90.687 34.3072C91.7839 32.1173 92.3324 29.6536 92.3324 26.3688V8.30212H86.2994Z" fill="#3D4144"/>
<path id="Vector_6" fill-rule="evenodd" clip-rule="evenodd" d="M239.592 30.7486C238.769 30.2011 237.672 30.4748 237.124 31.2961C237.124 31.2961 237.124 31.2961 237.124 31.5698C236.301 32.6647 235.478 33.2122 234.107 33.7597C232.736 34.3072 231.365 34.5809 229.72 34.5809C227.8 34.5809 226.155 34.3072 225.058 33.486C223.687 32.6648 222.864 31.5698 222.041 30.2011C221.219 28.8324 220.944 26.9163 220.944 24.7264V23.9052C220.944 21.7153 221.219 20.0728 222.041 18.4304C222.864 17.0617 223.687 15.9668 225.058 15.1456C226.429 14.3243 228.074 14.0506 229.72 14.0506C231.365 14.0506 232.736 14.3243 234.107 14.8718C235.478 15.4193 236.301 16.2405 237.124 17.3355C237.124 17.3355 237.124 17.3355 237.124 17.6092C237.672 18.4304 238.769 18.7041 239.592 18.4304L244.528 15.9668C244.254 15.4193 243.979 14.8718 243.705 14.3243C242.334 12.4082 240.689 11.0395 238.221 9.6708C235.753 8.57585 233.01 8.02838 229.72 8.02838C226.155 8.02838 223.138 8.57586 220.67 9.94454C218.202 11.3132 216.283 12.9557 215.186 15.4193C213.815 17.8829 213.266 20.894 213.266 24.4526V25.0001C213.266 28.5587 213.815 31.5698 215.186 33.7597C216.557 36.2233 218.476 37.8658 220.944 39.2344C223.413 40.3294 226.429 41.1506 229.994 41.1506C233.559 41.1506 236.301 40.6031 238.769 39.5082C241.237 38.4132 243.157 37.0445 244.254 35.1284C244.528 34.5809 244.802 34.3072 245.076 33.7597L239.592 30.7486Z" fill="#3D4144"/>
</g>
<g id="Group_2">
<path id="Vector_7" d="M42.4235 29.6536C41.3266 31.5697 39.9555 32.391 39.407 32.391C39.407 32.391 39.1328 32.391 39.1328 32.6647V32.9384C39.407 33.4859 39.407 35.1283 38.3101 37.0445C36.939 39.5081 33.6483 41.4243 30.3576 39.2344C26.7926 37.3182 26.5184 31.296 26.7926 28.2849C26.7926 28.0112 26.7926 28.0112 27.0668 28.0112C27.6153 27.7374 28.1637 27.4637 28.438 27.1899C28.7122 26.9162 28.9864 26.9162 28.9864 27.1899C29.8091 28.0112 30.6318 29.1061 31.1802 29.6536C31.1802 29.9273 31.4545 29.9273 31.7287 29.6536C32.5514 29.3799 33.0998 29.1061 33.6483 29.3799H33.9225V29.1061C33.6483 28.8324 33.374 28.0112 33.374 27.1899C33.374 26.9162 33.0998 26.9162 33.0998 26.9162C32.5514 26.9162 31.1802 26.6425 30.0833 26.3687C29.8091 26.3687 29.8091 26.095 29.8091 25.8213C30.0833 25.2738 30.0833 24.7263 29.8091 24.1788C29.8091 23.9051 29.8091 23.9051 30.0833 23.6314C32.5514 22.2627 37.7617 19.2516 41.3266 21.4415C43.7947 23.6314 43.7947 27.19 42.4235 29.6536ZM24.5988 28.2849C24.0503 28.0112 23.5019 27.7374 23.2277 27.4637C22.9534 27.1899 22.6792 27.1899 22.6792 27.4637C21.8565 28.2849 21.0339 29.3798 20.4854 29.9273C20.4854 30.2011 20.2112 30.2011 19.937 29.9273C19.1143 29.6536 18.5658 29.3799 18.0174 29.6536H17.7431V29.3799C18.0174 29.1061 18.2916 28.2849 18.2916 27.4637C18.2916 27.1899 18.5658 27.1899 18.5658 27.1899C19.1143 27.1899 20.4854 26.9162 21.5823 26.6425C21.8565 26.6425 21.8565 26.3687 21.8565 26.095C21.5823 25.5475 21.5823 25 21.8565 24.4526C21.8565 24.1788 21.8565 24.1788 21.5823 23.9051C19.6627 22.2627 14.4524 19.5253 10.8875 21.7152C7.59676 23.6314 7.32253 27.1899 8.69367 29.9273C9.79057 31.8435 11.1617 32.6647 11.7102 32.6647C11.7102 32.6647 11.9844 32.6647 11.9844 32.9384V33.2122C11.7102 33.7596 11.7102 35.4021 12.8071 37.3182C14.1782 39.7819 17.4689 41.698 20.7596 39.5081C24.3246 37.592 24.5988 31.5697 24.3246 28.5586C24.873 28.5586 24.873 28.2849 24.5988 28.2849ZM27.6153 25C27.6153 23.9051 26.7926 23.0839 25.6957 23.0839C24.5988 23.0839 23.7761 23.9051 23.7761 25C23.7761 26.095 24.5988 26.9162 25.6957 26.9162C26.7926 27.19 27.6153 26.095 27.6153 25ZM22.9534 22.8102C23.2277 22.8102 23.2277 22.8102 23.5019 22.8102C23.7761 22.5364 24.3246 22.2627 24.873 21.9889C25.1473 21.9889 25.1473 21.7152 25.1473 21.4415C24.873 20.3465 24.3246 18.9778 24.0504 18.4304C24.0504 18.1566 24.0504 18.1566 24.3246 17.8829C25.1473 17.3354 25.4215 16.7879 25.6957 16.5142C25.6957 16.5142 25.6957 16.5142 25.9699 16.5142H26.2442C26.5184 17.0617 26.7926 17.6091 27.6153 17.8829C27.8895 17.8829 27.8895 18.1566 27.8895 18.4304C27.6153 18.9778 27.0668 20.3465 26.7926 21.4415C26.7926 21.7152 26.7926 21.9889 27.0668 21.9889C27.6153 22.2627 28.1637 22.5364 28.438 22.8102C28.438 22.8102 28.7122 23.0839 28.9864 22.8102C31.4545 21.4415 36.6648 18.4304 36.6648 14.3243C36.6648 10.492 33.6483 8.57581 30.6318 8.57581C28.438 8.57581 27.0668 9.39702 26.5184 9.94449H26.2442H25.9699C25.4215 9.39702 24.3246 8.57581 21.8565 8.57581C18.84 8.57581 15.8236 10.492 15.8236 14.3243C15.2751 18.1566 20.4854 21.4415 22.9534 22.8102Z" fill="#00CB98"/>
<path id="Vector_8" fill-rule="evenodd" clip-rule="evenodd" d="M25.6953 0.363647C11.984 0.363647 0.740723 11.3131 0.740723 25C0.740723 38.6869 11.984 49.6364 25.6953 49.6364C39.4067 49.6364 50.6499 38.6869 50.6499 25C50.6499 11.3131 39.4067 0.363647 25.6953 0.363647ZM25.6953 45.2566C14.452 45.2566 5.12835 36.2233 5.12835 25C5.12835 13.7768 14.1778 4.74345 25.6953 4.74345C36.9386 4.74345 46.2623 13.7768 46.2623 25C45.9881 36.2233 36.9386 45.2566 25.6953 45.2566Z" fill="#00CB98"/>
</g>
</g>
</svg>
