<svg width="468" height="470" viewBox="0 0 468 470" fill="none" xmlns="http://www.w3.org/2000/svg">
<path d="M142.07 55.6749C120.25 60.5236 96.0049 71.4334 94.1874 77.1924C93.5805 79.3133 97.5205 83.5553 102.976 86.2831C108.127 89.3143 119.947 97.4962 129.037 104.769C138.13 112.042 145.099 115.679 145.099 113.558C145.099 109.013 135.705 99.3152 131.462 99.3152C127.523 99.3152 108.43 86.5865 109.946 84.7675C110.855 84.1621 113.279 84.7675 115.401 86.2831C117.522 87.7987 125.704 91.4353 133.281 94.4665C149.948 100.527 157.221 112.346 151.16 123.256C146.312 132.348 140.251 131.136 113.886 116.286C93.2786 104.466 90.5508 103.557 90.5508 108.709C90.5508 112.043 97.2171 121.438 105.097 129.317C122.977 147.198 149.343 158.107 212.378 173.562C236.319 179.623 263.29 187.2 272.382 190.836C298.444 200.837 339.053 226.597 356.327 244.174C380.874 268.722 389.058 300.844 379.662 337.211C376.632 348.424 398.755 319.937 411.181 296.299C423.606 273.57 433 243.568 433 228.112C433 215.08 412.998 182.351 393.603 163.259C363.298 133.56 328.447 116.589 273.897 105.073C235.106 96.8909 234.198 97.1928 226.621 112.043C216.317 132.65 205.71 145.075 194.497 149.924C183.284 154.471 169.041 152.955 159.344 146.287C154.495 142.954 155.1 142.045 165.708 134.772C187.831 120.226 192.376 96.5874 177.83 72.6455C174.495 67.1914 172.374 61.7358 173.587 60.8271C176.92 57.1905 199.649 66.2827 212.984 76.5855C225.712 86.2831 229.349 87.1918 257.836 89.9197C298.444 93.8597 319.961 99.6172 350.57 114.77C387.846 132.953 414.514 161.44 429.06 197.806C433.909 210.535 433.605 200.837 428.455 181.139C421.483 154.471 408.756 133.56 385.723 109.922C359.358 82.6465 326.326 65.3724 283.898 56.5836C249.349 49.6139 172.678 49.0086 142.07 55.6749ZM157.828 68.1002C165.708 75.0699 164.798 85.9796 155.707 92.0421C148.736 96.5874 147.524 96.5874 140.554 92.0421C131.765 86.2831 130.857 76.5855 138.13 68.4036C144.191 61.7358 150.555 61.4324 157.828 68.1002ZM305.415 139.924C309.657 142.349 315.718 148.106 318.446 153.259C323.598 161.744 323.598 162.349 318.446 166.593C301.172 181.139 266.927 183.26 242.683 170.835C233.894 166.289 226.925 161.44 226.925 159.925C226.925 158.107 227.226 156.895 227.833 156.895C228.137 156.895 236.015 154.167 245.107 150.834L261.775 145.075H249.956C234.803 144.773 237.227 142.349 257.836 137.197C275.716 132.65 292.99 133.56 305.415 139.924Z" fill="#0B49B6"/>
<path d="M371.781 59.3114C345.113 63.8582 339.657 66.8879 351.477 70.5245C359.355 72.9489 399.965 113.558 407.541 126.287C410.572 131.439 415.723 135.681 418.754 135.681C422.996 135.681 423.906 134.772 421.482 131.741C417.239 126.589 409.662 95.3752 406.936 72.6455C405.724 61.7357 403.601 54.1592 401.48 54.1592C399.661 54.4626 386.327 56.887 371.781 59.3114Z" fill="#0B49B6"/>
<path d="M69.6388 100.829C46.9099 138.105 36 179.018 36 225.99C36.303 285.389 54.4861 333.574 90.2465 369.335C114.187 392.972 132.673 404.488 159.948 412.065C211.771 426.308 294.504 420.247 337.235 398.731L348.75 392.972L341.78 385.093C329.961 372.365 319.961 366.607 294.505 357.515L270.259 348.424L245.107 357.213C217.528 366.911 198.436 378.124 180.859 394.791C174.495 400.852 169.342 404.488 169.342 402.973C169.342 401.459 176.919 393.275 186.011 384.487C200.557 370.547 232.378 352.364 251.773 346.605L258.744 344.484L252.38 341.756C248.743 340.241 234.197 336.908 219.952 334.18C196.314 329.331 192.677 329.331 173.282 333.878C148.735 339.332 126.612 348.121 115.703 356.91C104.489 365.698 100.549 364.486 111.157 355.394C119.036 348.726 141.765 337.211 166.313 327.514C173.889 324.482 173.889 324.482 160.555 317.513C152.979 313.876 139.644 305.996 130.856 299.935C114.187 289.025 111.763 288.722 79.9426 294.783L70.851 296.602L78.4273 292.358C82.67 289.934 91.1553 287.208 97.2163 285.996L108.429 283.873L98.125 270.539C92.6709 262.962 86.3067 252.356 84.1853 246.295C79.6395 234.477 74.7907 232.052 53.8801 232.052C45.6977 232.052 39.9396 230.839 40.8488 229.325C41.758 227.809 50.2435 226.597 59.9412 226.597H77.5181L75.0937 213.566C71.4571 195.08 71.7601 154.167 75.3968 159.925C76.912 162.349 78.4273 172.047 78.4273 181.139C78.7304 199.625 84.7914 231.142 89.9431 240.234C93.5797 246.901 93.2763 247.204 99.6406 222.96C101.762 215.08 105.4 206.898 107.521 205.079C111.157 202.049 111.157 203.262 107.521 213.263C105.4 219.929 102.672 232.658 101.762 241.75C99.3372 261.75 102.975 267.206 131.461 287.208L149.644 299.632L151.766 284.783C154.494 265.994 164.494 239.627 172.374 229.626C177.526 223.264 177.222 224.778 170.858 239.022C155.403 273.267 154.494 301.754 168.434 308.118C174.193 310.845 213.892 320.542 219.044 320.542C219.347 320.542 219.649 308.724 219.649 293.874C219.649 273.267 220.863 264.478 226.013 252.962C229.65 245.083 233.287 238.719 233.893 238.719C234.802 238.719 232.681 247.204 229.348 257.508C222.984 277.509 223.287 299.935 229.953 314.481C232.681 320.846 236.923 322.967 258.137 327.21C271.775 329.938 286.321 333.271 289.958 334.483L297.231 336.604L292.08 326.603C281.472 305.996 283.291 269.63 295.717 259.326C299.959 255.689 299.959 256.296 295.717 265.085C287.837 280.237 289.049 303.875 299.05 323.27C306.02 337.211 309.96 341.151 325.415 349.03C335.416 354.182 347.537 361.151 352.386 364.486L361.175 370.244L359.357 344.788C357.235 313.573 355.114 307.512 335.719 278.419C309.656 239.022 287.837 226.9 214.8 211.747C128.735 193.868 105.096 180.835 87.5189 141.136C83.5792 131.741 81.4578 120.226 81.1548 105.678C80.8517 93.8595 80.5487 84.162 80.2456 84.162C79.9426 84.162 75.0937 91.7385 69.6388 100.829Z" fill="#2E6D4A"/>
</svg>
